<svg xmlns="http://www.w3.org/2000/svg" width="27.21" height="17.88" viewBox="0 0 27.21 17.88">
  <path id="Chevron" d="M17.88,18.538a1.162,1.162,0,0,1-.094.467,1.31,1.31,0,0,1-.292.411L9.862,26.879a1.089,1.089,0,0,1-.8.331,1.122,1.122,0,0,1-.579-.152,1.177,1.177,0,0,1-.415-.408,1.083,1.083,0,0,1-.156-.576,1.141,1.141,0,0,1,.354-.825l6.881-6.714L.354,1.959A1.131,1.131,0,0,1,0,1.135,1.083,1.083,0,0,1,.156.56,1.177,1.177,0,0,1,.571.152,1.122,1.122,0,0,1,1.15,0a1.1,1.1,0,0,1,.8.323L17.494,17.66a1.327,1.327,0,0,1,.29.41A1.182,1.182,0,0,1,17.88,18.538Z" transform="translate(27.21) rotate(90)" fill="#fff"/>
</svg>
