<svg id="Group_53836" data-name="Group 53836" xmlns="http://www.w3.org/2000/svg" xmlns:xlink="http://www.w3.org/1999/xlink" width="220.138" height="158.563" viewBox="0 0 220.138 158.563">
  <defs>
    <clipPath id="clip-path">
      <rect id="Rectangle_5666" data-name="Rectangle 5666" width="220.138" height="158.563" fill="none"/>
    </clipPath>
  </defs>
  <g id="Group_53835" data-name="Group 53835">
    <g id="Group_53834" data-name="Group 53834" clip-path="url(#clip-path)">
      <path id="Path_48134" data-name="Path 48134" d="M159.512,147.416c25.6,0,49.165.382,67.862,1.024,17.24-2.55,41.236-34.195,25.435-67.2s-45.064-17.842-75.4-61.306c-22.349-32.021-76.38-17.6-99.245,22.538C61.736,71.3,45.892,122.286,91.649,148.44c18.7-.642,42.26-1.024,67.863-1.024M188.841,3.283c8.461-7.411,23.985-1.319,35.572,8.745s17.515,23.356,12.709,30.437c-6.433,9.477-25.8,2.569-37.517-6.345-9.019-6.865-20.8-24.042-10.764-32.837" transform="translate(-49.442 0)" fill="#e8eaed" fill-rule="evenodd"/>
      <path id="Path_48135" data-name="Path 48135" d="M110.07,747.97C49.28,747.97,0,750.128,0,752.791s49.28,4.82,110.07,4.82,110.069-2.158,110.069-4.82-49.279-4.821-110.069-4.821" transform="translate(0 -600.555)" fill="#d2deec" fill-rule="evenodd"/>
      <path id="Path_48136" data-name="Path 48136" d="M187.53,31.086c17.749-3.953,25.294.412,25.914,5.375.784,6.285-10.25,7.58-20.787,8.395-14.91,1.152-24.668,2.919-37.2,12.457C141.432,67.986,140.129,79.707,140.832,74.7c1.714-12.206,19.208-37.487,46.7-43.612m75.641-6.159c-1.166,1.344-1.656.385-4.91.815-5.246.693-6.744,5.678-6.659,3.771.2-4.482,3.079-8.368,7.812-8.652,3.816-.229,4.924,2.723,3.757,4.066" transform="translate(-112.956 -16.74)" fill="#fff" fill-rule="evenodd"/>
      <path id="Path_48137" data-name="Path 48137" d="M911.23,551.93c1.256-1.571,3.022-2.87,3.54-4.813.612-2.294-.736-4.708-.4-7.058.419-2.957,3.268-4.875,4.815-7.431,1.514-2.5.8-3.345.943-6.267.208-4.4,3.819-9.961,8.631-8.471,4.886,1.515,4.088,6.057,3.228,9.474-.613,2.433-.213,2.783.383,5.221.719,2.944,3.037,5.79,2.068,8.662-.6,1.776-2.341,2.975-2.97,4.741-.714,2,.15,4.17.483,6.268a13.354,13.354,0,0,1-3.514,11.737,12.567,12.567,0,0,1-1.075.915c-4.495-.253-9.552-.487-15.1-.7l-.041-.044c-2.937-3.206-3.813-8.707-.992-12.236" transform="translate(-730.258 -415.622)" fill="#bad0d1" fill-rule="evenodd"/>
      <path id="Path_48138" data-name="Path 48138" d="M955.183,538.063a.386.386,0,1,1,.721.276,27.816,27.816,0,0,0-.977,3.13q.166-.15.343-.292a8.934,8.934,0,0,1,1.785-1.1.386.386,0,0,1,.329.7,8.18,8.18,0,0,0-1.633,1.008,6.63,6.63,0,0,0-1.175,1.217c-.494,2.357-.816,4.89-1.106,7.56a13.652,13.652,0,0,1,1.432-1.87,10.007,10.007,0,0,1,2.929-2.234.385.385,0,0,1,.342.69,9.252,9.252,0,0,0-2.7,2.067,14.449,14.449,0,0,0-2.2,3.252l-.075.725c-.164,1.592-.333,3.224-.532,4.893a.478.478,0,0,1-.006.048c-.209,1.743-.452,3.523-.759,5.332a22.2,22.2,0,0,1,2.693-3.416,16.347,16.347,0,0,1,4.635-3.39.386.386,0,0,1,.334.7,15.559,15.559,0,0,0-4.415,3.232,23.136,23.136,0,0,0-3.647,5.059,63.288,63.288,0,0,1-1.883,7.308h0l0,.009q-.591,1.817-1.334,3.65a22.269,22.269,0,0,1,9.611-4.856.387.387,0,0,1,.175.753,21.7,21.7,0,0,0-5.69,2.176,22.222,22.222,0,0,0-4.841,3.665q-.514,1.14-1.1,2.283l-.85-.037a51.543,51.543,0,0,0,3.28-7.839,14.878,14.878,0,0,0-.669-5.647,20.7,20.7,0,0,0-2.936-5.734.386.386,0,0,1,.63-.446,21.455,21.455,0,0,1,3.041,5.948,16.152,16.152,0,0,1,.686,3.383,81.721,81.721,0,0,0,2.269-12.172,24.263,24.263,0,0,0-1.518-4.2,9.084,9.084,0,0,0-1.811-2.633.385.385,0,1,1,.529-.561,9.824,9.824,0,0,1,1.978,2.857,21.321,21.321,0,0,1,1.044,2.6c.114-1.03.218-2.047.322-3.046l.08-.778c0-.014,0-.028,0-.043.55-5.3,1.1-10.126,2.671-14.224" transform="translate(-758.902 -431.818)" fill="#fff" fill-rule="evenodd"/>
      <path id="Path_48139" data-name="Path 48139" d="M970.112,622.834c1.34-.722,2.955-1.1,3.892-2.3,1.106-1.416.882-3.5,1.811-5.035,1.168-1.937,3.721-2.428,5.556-3.75,1.8-1.3,1.551-2.092,2.513-4.086,1.45-3.006,5.612-5.808,8.523-3.344,2.954,2.5,1.052,5.43-.559,7.556-1.148,1.513-.972,1.875-1.28,3.75-.371,2.264.4,4.934-1.125,6.647-.944,1.059-2.512,1.378-3.474,2.422-1.09,1.182-1.131,2.95-1.521,4.509a10.043,10.043,0,0,1-2.847,5.08c-3.85-.291-8.377-.563-13.485-.811a7.574,7.574,0,0,1-.938-1.816c-1.1-3.1-.076-7.194,2.934-8.817" transform="translate(-776.215 -484.454)" fill="#c4def3" fill-rule="evenodd"/>
      <path id="Path_48140" data-name="Path 48140" d="M1002.771,618.517a.292.292,0,1,1,.421.406,21.194,21.194,0,0,0-1.608,1.891q.16-.055.325-.1a6.716,6.716,0,0,1,1.571-.241.292.292,0,1,1,.022.583,6.245,6.245,0,0,0-1.436.218,5.034,5.034,0,0,0-1.179.5c-1.042,1.5-2.017,3.164-3.011,4.939a10.331,10.331,0,0,1,1.552-.879,7.594,7.594,0,0,1,2.7-.689.292.292,0,0,1,.034.582,7.01,7.01,0,0,0-2.495.64,10.921,10.921,0,0,0-2.5,1.614l-.266.482c-.586,1.06-1.188,2.148-1.82,3.25-.006.011-.011.022-.018.032-.662,1.152-1.358,2.32-2.108,3.489a16.837,16.837,0,0,1,2.888-1.581,12.365,12.365,0,0,1,4.233-.988.292.292,0,0,1,.026.584,11.8,11.8,0,0,0-4.033.943,17.558,17.558,0,0,0-4.039,2.443,47.833,47.833,0,0,1-3.477,4.533h0l0,.005h0q-.951,1.089-2.011,2.146a16.859,16.859,0,0,1,8.133-.535.293.293,0,0,1-.1.576,16.426,16.426,0,0,0-4.609-.17,16.8,16.8,0,0,0-4.458,1.119q-.761.7-1.583,1.383l-.871-.045a38.914,38.914,0,0,0,5.039-4.838,11.262,11.262,0,0,0,1.207-4.132,15.637,15.637,0,0,0-.346-4.864.292.292,0,0,1,.57-.125,16.241,16.241,0,0,1,.357,5.044,12.236,12.236,0,0,1-.524,2.56,61.862,61.862,0,0,0,5.187-7.806,18.393,18.393,0,0,0,.186-3.373,6.855,6.855,0,0,0-.482-2.371.292.292,0,1,1,.535-.234,7.453,7.453,0,0,1,.531,2.576,16.225,16.225,0,0,1-.044,2.123q.577-1.026,1.127-2.027l.286-.518.016-.028c1.953-3.53,3.769-6.727,6.075-9.118" transform="translate(-789.305 -496.544)" fill="#fff" fill-rule="evenodd"/>
      <path id="Path_48141" data-name="Path 48141" d="M499.86,129.779c-.394,5.406-1.192,6.152-6.346,6.568,5.155.417,5.952,1.163,6.346,6.57.394-5.407,1.191-6.152,6.346-6.57-5.155-.416-5.952-1.162-6.346-6.568m-20.955,14.259c-.211,2.887-.637,3.285-3.388,3.508,2.752.222,3.178.62,3.388,3.507.21-2.887.636-3.285,3.388-3.507-2.753-.223-3.178-.621-3.388-3.508m5.745-18.664c2.787.225,3.219.628,3.432,3.552.213-2.924.643-3.327,3.431-3.552-2.787-.225-3.218-.628-3.431-3.552-.213,2.924-.645,3.327-3.432,3.552" transform="translate(-381.799 -97.812)" fill="#fff" fill-rule="evenodd"/>
      <path id="Path_48142" data-name="Path 48142" d="M616.638,585.716c.319,4.381.966,4.985,5.141,5.321-4.176.338-4.822.943-5.141,5.322-.319-4.379-.965-4.984-5.141-5.322,4.177-.337,4.822-.941,5.141-5.321m16.976,11.553c.17,2.338.515,2.661,2.745,2.841-2.23.181-2.575.5-2.745,2.841-.17-2.338-.516-2.66-2.745-2.841,2.229-.18,2.575-.5,2.745-2.841m-4.654-15.121c-2.258.182-2.608.51-2.78,2.877-.172-2.368-.522-2.7-2.78-2.877,2.258-.182,2.607-.509,2.78-2.878.172,2.368.522,2.7,2.78,2.878" transform="translate(-490.979 -465.103)" fill="#fff" fill-rule="evenodd"/>
      <path id="Path_48143" data-name="Path 48143" d="M237.568,537.084c-.244,3.353-.739,3.816-3.937,4.074,3.2.258,3.693.721,3.937,4.075.244-3.354.739-3.817,3.936-4.075-3.2-.258-3.692-.721-3.936-4.074m-13,8.845c-.13,1.79-.394,2.037-2.1,2.176,1.707.138,1.97.385,2.1,2.175.131-1.79.4-2.037,2.1-2.175-1.707-.139-1.971-.385-2.1-2.176m3.564-11.577c1.73.14,2,.39,2.128,2.2.132-1.814.4-2.063,2.129-2.2-1.729-.139-2-.39-2.129-2.2-.132,1.813-.4,2.064-2.128,2.2" transform="translate(-178.623 -427.268)" fill="#fff" fill-rule="evenodd"/>
      <path id="Path_48144" data-name="Path 48144" d="M211.194,403.117l74.117,9.443-.275,48.013-72.566,3.768Z" transform="translate(-169.571 -323.668)" fill="#bad0d1" fill-rule="evenodd"/>
      <path id="Path_48145" data-name="Path 48145" d="M225.474,420.041l68.318,8.056L294,472.131l-67.575,2.891Z" transform="translate(-181.036 -337.256)" fill="#eef8fd" fill-rule="evenodd"/>
      <path id="Path_48146" data-name="Path 48146" d="M203.48,464.338l-.039,0-1.277-61.223-2.217,1.381,2.143,59.41,1.351.431Z" transform="translate(-160.541 -323.668)" fill="#3d727b" fill-rule="evenodd"/>
      <path id="Path_48147" data-name="Path 48147" d="M372.415,713.4l9.619-.584-4.665-8.406v-.92l-9.282.482-.021.981Z" transform="translate(-295.526 -564.844)" fill="#bad0d1" fill-rule="evenodd"/>
      <path id="Path_48148" data-name="Path 48148" d="M399.445,750.815l-9.619.584-.074,2.343,9.659-.679.048-2.222Z" transform="translate(-312.938 -602.839)" fill="#88b9e3" fill-rule="evenodd"/>
      <path id="Path_48149" data-name="Path 48149" d="M369.8,715.37l-4.348-8.447.021-.981-.66.034V707l4.68,8.432-.048,2.222.283.055v-.123Z" transform="translate(-292.914 -566.81)" fill="#3d727b" fill-rule="evenodd"/>
      <path id="Path_48150" data-name="Path 48150" d="M326.439,747.784l5.135-2.078,0-.155-1.122-2.021-3.977-.081-8.887,3.477Zm28.986-1.843.776-1.515-15.278-.574.582,1.05.015.026-.008.375,13.9.669Z" transform="translate(-254.998 -596.924)" fill="#bad0d1" fill-rule="evenodd"/>
      <path id="Path_48151" data-name="Path 48151" d="M313.469,758.59l9,.935,5.785-2.555-.032-.006.044-2.067-5.135,2.078-8.848-.857-.05.153Z" transform="translate(-251.688 -606.116)" fill="#bad0d1" fill-rule="evenodd"/>
      <path id="Path_48152" data-name="Path 48152" d="M438.786,754.49l16.217.834-2.269-1.836-.016.03-13.9-.669Z" transform="translate(-352.307 -604.472)" fill="#3d727b" fill-rule="evenodd"/>
      <path id="Path_48153" data-name="Path 48153" d="M509.477,749.946l2.285,1.807.651-1.476-2.144-1.875Z" transform="translate(-409.065 -600.901)" fill="#6086c4" fill-rule="evenodd"/>
      <path id="Path_48154" data-name="Path 48154" d="M533.741,691.094a.281.281,0,1,1-.285.271.279.279,0,0,1,.285-.271" transform="translate(-428.318 -554.888)" fill="#e4e5e5" fill-rule="evenodd"/>
      <path id="Path_48155" data-name="Path 48155" d="M545.17,690.426a.281.281,0,1,1-.285.271.279.279,0,0,1,.285-.271" transform="translate(-437.495 -554.351)" fill="#e4e5e5" fill-rule="evenodd"/>
      <path id="Path_48156" data-name="Path 48156" d="M556.6,689.757a.281.281,0,1,1-.285.271.279.279,0,0,1,.285-.271" transform="translate(-446.669 -553.814)" fill="#e4e5e5" fill-rule="evenodd"/>
      <path id="Path_48157" data-name="Path 48157" d="M567.827,687.555a.589.589,0,1,1-.6.57.585.585,0,0,1,.6-.57" transform="translate(-455.434 -552.046)" fill="#e4e5e5" fill-rule="evenodd"/>
      <path id="Path_48158" data-name="Path 48158" d="M225.525,423,293.8,429.83l-.008-1.734-68.318-8.056Z" transform="translate(-181.036 -337.256)" fill="#deecf8" fill-rule="evenodd"/>
      <path id="Path_48159" data-name="Path 48159" d="M233.912,425.606a.678.678,0,1,1-.7.656.679.679,0,0,1,.7-.656" transform="translate(-187.248 -341.724)" fill="#fff" fill-rule="evenodd"/>
      <path id="Path_48160" data-name="Path 48160" d="M247.423,427.223a.678.678,0,1,1-.7.656.678.678,0,0,1,.7-.656" transform="translate(-198.096 -343.022)" fill="#fff" fill-rule="evenodd"/>
      <path id="Path_48161" data-name="Path 48161" d="M260.938,428.836a.678.678,0,1,1-.7.655.678.678,0,0,1,.7-.655" transform="translate(-208.948 -344.318)" fill="#fff" fill-rule="evenodd"/>
      <path id="Path_48162" data-name="Path 48162" d="M366.807,379.179a230.584,230.584,0,0,1,34.363,1.225c-1.477-6.343-2.514-13.758-3.433-20.743-2.824-21.442-4.146-44.161-9.616-44.546q-20.672-4.555-47.888-3.367c5.443.469,6.766,23.142,9.583,44.543,2.37,18,5.519,38.857,14.971,36.871,5.431-.959-6.417-13.178,1.765-13.973.086-.006.171-.009.255-.009" transform="translate(-273.177 -250.109)" fill="#fafdff" fill-rule="evenodd"/>
      <path id="Path_48163" data-name="Path 48163" d="M509.432,655.5a230.621,230.621,0,0,0-34.363-1.225c4.062.007,5.216,6.815,5.2,12.525-.02,6.172-.419,12.466,7.723,13.616q17.062-1.105,47.8,3.352h0c-8.012-1.2-7.616-7.457-7.6-13.6.018-5.828-1.183-12.8-5.452-12.516q-6.308-1.325-13.3-2.153h0" transform="translate(-381.439 -525.201)" fill="#deecf8" fill-rule="evenodd"/>
      <path id="Path_48164" data-name="Path 48164" d="M458.981,668.994q3.453-.027,8.095-.418c0-.386,0-.774.006-1.161.018-5.71-1.135-12.518-5.2-12.525l-.255.009c-8.182.8,3.667,13.014-1.765,13.974a6.208,6.208,0,0,1-.884.121" transform="translate(-368.254 -525.819)" fill="#97c1e7" fill-rule="evenodd"/>
      <path id="Path_48165" data-name="Path 48165" d="M302.362,381.493a58.576,58.576,0,0,1-7.57.11q3.493,8.3,7.117,5.607c1.282-1.066,1.063-3.211.453-5.717" transform="translate(-236.692 -306.306)" fill="#d2deec" fill-rule="evenodd"/>
      <path id="Path_48166" data-name="Path 48166" d="M322.7,332.642q5.7.325,10.07.235c-1.524-11.4-3.31-19.872-6.615-20.157a2.965,2.965,0,0,0-2.017.73c-2.82,2.656-.464,8.318.631,12.818.61,2.506.829,4.651-.453,5.717a3.043,3.043,0,0,1-1.616.657" transform="translate(-259.101 -251.08)" fill="#97c1e7" fill-rule="evenodd"/>
      <path id="Path_48167" data-name="Path 48167" d="M413.616,477.267a.489.489,0,1,1-.084-.974c5.97-.521,12.195-.71,18.065-.677,7.047.038,13.615.4,18.632.879a.489.489,0,0,1-.093.974c-4.97-.479-11.5-.833-18.548-.872-5.862-.032-12.058.155-17.972.671M412,470.92a.49.49,0,1,1-.053-.979c6.051-.337,12.371-.329,18.337-.108,7.155.264,13.8.836,18.862,1.485a.489.489,0,1,1-.123.97c-5.033-.644-11.648-1.213-18.779-1.477-5.927-.219-12.214-.226-18.245.11m-1.068-5.843a.49.49,0,0,1-.038-.978c6.11-.248,12.478-.145,18.481.168,7.212.375,13.9,1.051,18.99,1.78a.49.49,0,0,1-.139.97c-5.066-.727-11.725-1.4-18.9-1.774-5.977-.311-12.314-.413-18.392-.166m-1.239-5.377a.489.489,0,0,1-.038-.978c6.2-.252,12.661-.147,18.753.17,7.319.381,14.106,1.067,19.27,1.807a.489.489,0,1,1-.139.969c-5.141-.737-11.9-1.42-19.182-1.8-6.065-.316-12.5-.421-18.664-.169m-.4-5.749a.489.489,0,1,1-.038-.978c6.2-.252,12.662-.147,18.753.169,7.319.381,14.106,1.067,19.269,1.807a.489.489,0,0,1-.138.969c-5.142-.737-11.9-1.42-19.182-1.8-6.065-.315-12.5-.42-18.664-.169m-.307-5.74a.49.49,0,0,1-.038-.978c6.2-.252,12.661-.147,18.753.17,7.318.381,14.106,1.066,19.269,1.807a.489.489,0,1,1-.139.968c-5.141-.737-11.9-1.419-19.182-1.8-6.065-.316-12.5-.42-18.664-.168m-.8-5.785a.49.49,0,0,1-.037-.978c6.2-.251,12.661-.147,18.753.17,7.318.381,14.106,1.066,19.27,1.807a.49.49,0,0,1-.139.969c-5.141-.737-11.9-1.42-19.182-1.8-6.066-.316-12.5-.421-18.664-.169m-.7-5.776a.49.49,0,1,1-.037-.978c6.2-.252,12.661-.147,18.753.17,7.318.381,14.106,1.067,19.27,1.807a.49.49,0,1,1-.14.969c-5.141-.738-11.9-1.42-19.181-1.8-6.066-.315-12.5-.42-18.664-.168" transform="translate(-326.769 -349.695)" fill="#97c1e7" fill-rule="evenodd"/>
      <path id="Path_48168" data-name="Path 48168" d="M524.371,677.035a.489.489,0,0,1-.038-.978c5.976-.248,12.2-.152,18.074.149,7.054.362,13.6,1.018,18.573,1.727a.49.49,0,0,1-.135.97c-4.956-.707-11.468-1.361-18.489-1.72-5.845-.3-12.043-.4-17.986-.149m2.1,10.29a.489.489,0,1,1-.069-.976c5.968-.428,12.2-.52,18.072-.4,7.052.148,13.612.607,18.618,1.168a.489.489,0,1,1-.109.971c-4.967-.556-11.495-1.011-18.533-1.159-5.852-.123-12.05-.031-17.98.393m-.685-5.567a.489.489,0,1,1-.041-.978c5.973-.262,12.2-.18,18.076.106,7.053.345,13.6.985,18.577,1.684a.489.489,0,1,1-.135.969c-4.957-.695-11.471-1.332-18.494-1.675-5.843-.285-12.039-.366-17.984-.106" transform="translate(-420.616 -542.701)" fill="#97c1e7" fill-rule="evenodd"/>
      <path id="Path_48169" data-name="Path 48169" d="M858.5,363.151a13.192,13.192,0,0,1,4.681.061,4.123,4.123,0,0,1-.607-1.325c-3.84-.382-3.513-1.344-3.4-1.78.668-2.084,1.068-3.4.485-3.985a1.931,1.931,0,0,0-1.049,1.4c-.247-.133-.564-.31-.617-.582-.13-.814-.188-2.518-1.131-2.614q-.222,1.135-.374,2.409c-.515.455-.483,2.182-.058,4.178q-.383,1.688,2.056,1.892Z" transform="translate(-687.379 -284.493)" fill="#f9af79" fill-rule="evenodd"/>
      <path id="Path_48170" data-name="Path 48170" d="M899.607,746.747s-.218,3.515-.9,3.566c-.089.006-3.447.006-3.447.006l-4.29-.025a1.394,1.394,0,0,1,1.282-1.252c1.255-.218,3.353-1.1,4.112-2.755.8-1.742,3.242.46,3.242.46" transform="translate(-715.372 -598.665)" fill="#263c84" fill-rule="evenodd"/>
      <path id="Path_48171" data-name="Path 48171" d="M876.794,575.806a8.947,8.947,0,0,1-2.321.436,8.528,8.528,0,0,1-2.168-.309,59.34,59.34,0,0,0-1.594-7.6c-.709-2.741-1.719-6.264-3.159-10.643a144.663,144.663,0,0,1-5.3-19.85.394.394,0,0,1-.005-.053l.011-.006,12.229-5.368s-1.513,16.677.415,23.08a27.15,27.15,0,0,1,.7,3.066,123.165,123.165,0,0,1,1.191,17.248" transform="translate(-692.311 -427.48)" fill="#205760" fill-rule="evenodd"/>
      <path id="Path_48172" data-name="Path 48172" d="M875.626,558.558l-4.893,9.775c-.709-2.741-1.718-6.264-3.159-10.643a144.683,144.683,0,0,1-5.3-19.85c0-.02,0-.038.005-.059l12.229-5.368s-1.513,16.677.415,23.08a27.144,27.144,0,0,1,.7,3.066" transform="translate(-692.333 -427.48)" fill="#3d727b" fill-rule="evenodd"/>
      <path id="Path_48173" data-name="Path 48173" d="M851.156,746.747s-.218,3.515-.9,3.566c-.089.006-3.448.006-3.448.006l-4.29-.025a1.4,1.4,0,0,1,1.282-1.252c1.255-.218,3.349-1.1,4.109-2.755.8-1.742,3.245.46,3.245.46" transform="translate(-676.469 -598.665)" fill="#263c84" fill-rule="evenodd"/>
      <path id="Path_48174" data-name="Path 48174" d="M851.157,534.406a174.029,174.029,0,0,0,1.71,24.077c1.871,13.269,1.235,18.9,1.235,18.9a12.72,12.72,0,0,0,1.8.458,8.158,8.158,0,0,0,2.673-.309s2.677-13.275,1.91-19.917,3.665-22.79,3.665-22.79Z" transform="translate(-683.402 -429.081)" fill="#205760" fill-rule="evenodd"/>
      <path id="Path_48175" data-name="Path 48175" d="M901.287,404.376s6.2,6.323,6.5,8.818-3.046,6.392-3.046,6.392Z" transform="translate(-723.655 -324.679)" fill="#76bcc4" fill-rule="evenodd"/>
      <path id="Path_48176" data-name="Path 48176" d="M870.978,384.6l-2.324,1.7-3.5-.475c.032-.283.2-1.456.361-2.519.008-.063.018-.126.027-.187.133-.9.25-1.682.25-1.682l3.173-1.593,1.183-.594c0,.019-.043,1-.049,1.142a8.267,8.267,0,0,0,.884,4.211" transform="translate(-694.64 -304.501)" fill="#f9af79" fill-rule="evenodd"/>
      <path id="Path_48177" data-name="Path 48177" d="M863.267,397.564c.2.224,4.752-1.128,4.9-1.591.452.126,1.374,1.281,1.374,1.281l-7.007,1.737a4.855,4.855,0,0,1,.737-1.427" transform="translate(-692.536 -317.932)" fill="#5e9bd3" fill-rule="evenodd"/>
      <path id="Path_48178" data-name="Path 48178" d="M862.751,429.015c-.693,3.159-12.218,3.534-15.192.667-.336-.328-.352-1.849-.226-3.9.251-4.006,1.051-10.033,1.083-13.112a24.2,24.2,0,0,1,.49-4.388,35.681,35.681,0,0,1,1.462-5.253s5.629-1.82,6.684-1.511c5.074,1.492,6.39,24.337,5.7,27.5" transform="translate(-680.276 -322.356)" fill="#76bcc4" fill-rule="evenodd"/>
      <path id="Path_48179" data-name="Path 48179" d="M847.63,451.047c.251-4.006,1.051-10.033,1.082-13.112a24.188,24.188,0,0,1,.491-4.388l3.388-.6s3.309,13.524-4.961,18.1" transform="translate(-680.573 -347.621)" fill="#76bcc4" fill-rule="evenodd"/>
      <path id="Path_48180" data-name="Path 48180" d="M871.321,382.83c-.65,1.242-3.253,2.418-4.341,2.857.008-.063.018-.126.027-.187.133-.9.25-1.682.25-1.682l3.173-1.593c.719-.045,1.163.093.892.6" transform="translate(-696.109 -306.887)" fill="#f8a066" fill-rule="evenodd"/>
      <path id="Path_48181" data-name="Path 48181" d="M859,354.043s5.308,1.37,6.11-1.948,2.027-5.375-1.327-6.39-4.322.091-4.859,1.134-1.281,6.762.076,7.2" transform="translate(-689.083 -277.248)" fill="#f9af79" fill-rule="evenodd"/>
      <path id="Path_48182" data-name="Path 48182" d="M847.984,492.982s-.449.984-.85,1.19a1.918,1.918,0,0,0-.9.832,2.935,2.935,0,0,0,.361,2.189c.3.376-.019-1.314,1.581-1.7.516-.125,1.255-.513,1.26-1.236a9.908,9.908,0,0,0-.094-1.5Z" transform="translate(-679.392 -395.644)" fill="#f9af79" fill-rule="evenodd"/>
      <path id="Path_48183" data-name="Path 48183" d="M857.145,502.634s-.8,1.831-1.016,1.761c-.549-.178.057-.82.014-1.337-.03-.347,1-.424,1-.424" transform="translate(-687.211 -403.571)" fill="#f9af79" fill-rule="evenodd"/>
      <path id="Path_48184" data-name="Path 48184" d="M835.982,405.744c-4.809.189-10.637,10.374-9.881,12.552.481,1.4,3.735,6.245,4.5,6.245s2.782-.511,2.849-1.758c0,0-2.177-4.829-1.859-5.7.342-.938,3.778-3.067,4.317-1.682.892,2.293.077-9.655.077-9.655" transform="translate(-663.233 -325.777)" fill="#76bcc4" fill-rule="evenodd"/>
      <path id="Path_48185" data-name="Path 48185" d="M856.153,345.81c-.118.437.631,1.338,3.483,2.062.42-.086.738-.522,1.112-.718a4.833,4.833,0,0,0,2.143-2.033c2.041-3.833-.117-5.511-1.278-6.131-.44-3.844-6.075-.567-8.828-2.471-1.138,1.51.193,3.458,1.057,3.509.943.1,1,1.8,1.131,2.615.054.272.369.449.617.581a1.749,1.749,0,0,1,.72-1.153c.241-.178.3-.267.449.009.355.659,0,1.853-.605,3.729" transform="translate(-684.358 -270.195)" fill="#205760" fill-rule="evenodd"/>
      <path id="Path_48186" data-name="Path 48186" d="M897.737,348.891q-.643-.642-.237-1.127a2.642,2.642,0,0,1,2.224.491,3.393,3.393,0,0,0-1.986.636" transform="translate(-720.488 -279.176)" fill="#263c84" fill-rule="evenodd"/>
      <path id="Path_48187" data-name="Path 48187" d="M895.391,344.755q.331.584.755.39a1.95,1.95,0,0,0,.086-1.679,2.5,2.5,0,0,1-.841,1.289" transform="translate(-718.921 -275.773)" fill="#205760" fill-rule="evenodd"/>
      <path id="Path_48188" data-name="Path 48188" d="M872.52,335.07a1.666,1.666,0,0,1-1.806,1.641q-2.742-1.305-2.926-3.328.891.941,4.732,1.687" transform="translate(-696.758 -267.677)" fill="#263c84" fill-rule="evenodd"/>
      <path id="Path_48189" data-name="Path 48189" d="M876.573,377.987q-.363-1.606-2.539-1.494c-3.347-1.9-2.847.976-2.579,2.706.7-.72,1.847-.4,5.118-1.212" transform="translate(-699.546 -301.791)" fill="#263c84" fill-rule="evenodd"/>
      <path id="Path_48190" data-name="Path 48190" d="M876.259,387.88q.119-.87,1.382-1c1.879-1.325,1.735.227,1.638,1.186-.442-.315-1.088-.046-3.02-.185" transform="translate(-703.559 -310.218)" fill="#263c84" fill-rule="evenodd"/>
      <path id="Path_48191" data-name="Path 48191" d="M847.269,531.79a29.056,29.056,0,0,0,8.694,1.17,15.8,15.8,0,0,0,6.94-1.675l.017-.56a16.461,16.461,0,0,1-6.973,1.73,29.686,29.686,0,0,1-8.677-1.237Z" transform="translate(-680.283 -426.127)" fill="#5e9bd3" fill-rule="evenodd"/>
      <path id="Path_48192" data-name="Path 48192" d="M610.02,166.808l-1.731,1.007a1.231,1.231,0,0,0-.445,1.678l.382.657c.451.775.255,1.125.115,1.251-.385.345-.742.719-1.1,1.092-.106.11-.44.484-1.32-.028l-.6-.351a1.231,1.231,0,0,0-1.678.444l-1.007,1.731a1.231,1.231,0,0,0,.444,1.678l.6.346c.826.48.8.726.7,1.076-.144.481-.3.961-.4,1.458-.094.443-.051.759-1.174.759h-.688a1.23,1.23,0,0,0-1.227,1.228v2a1.23,1.23,0,0,0,1.227,1.227h.688c1.122,0,1.08.317,1.174.76.1.5.259.978.4,1.457.1.35.125.6-.7,1.076l-.6.348a1.23,1.23,0,0,0-.444,1.678l1.007,1.73a1.231,1.231,0,0,0,1.678.444l.6-.35c.88-.513,1.214-.138,1.32-.028.359.373.715.747,1.1,1.092.14.126.336.476-.115,1.251l-.382.656a1.23,1.23,0,0,0,.445,1.678l1.731,1.007a1.23,1.23,0,0,0,1.678-.444l.381-.655c.458-.787.909-.756,1.1-.7.551.176,1.062.29,1.632.438.208.054.564.205.564,1.142v.7a1.23,1.23,0,0,0,1.227,1.227h2a1.23,1.23,0,0,0,1.227-1.227v-.7c0-.937.356-1.089.564-1.142.57-.149,1.079-.262,1.632-.438.19-.061.641-.091,1.1.7l.381.655a1.23,1.23,0,0,0,1.678.444l1.731-1.007a1.231,1.231,0,0,0,.444-1.678l-.383-.656c-.45-.775-.254-1.125-.113-1.251.384-.345.742-.719,1.1-1.092.106-.11.44-.484,1.319.028l.6.35a1.23,1.23,0,0,0,1.678-.444l1.007-1.73a1.23,1.23,0,0,0-.444-1.678l-.6-.348c-.824-.48-.8-.725-.7-1.076.143-.48.3-.961.4-1.457.094-.443.051-.76,1.174-.76h.687a1.23,1.23,0,0,0,1.228-1.227v-2a1.23,1.23,0,0,0-1.228-1.228H632.4c-1.123,0-1.08-.316-1.174-.759-.1-.5-.259-.978-.4-1.458-.105-.349-.126-.6.7-1.076l.6-.346a1.231,1.231,0,0,0,.444-1.678l-1.007-1.731a1.23,1.23,0,0,0-1.678-.444l-.6.351c-.879.512-1.214.137-1.319.028-.359-.372-.716-.747-1.1-1.092-.141-.126-.337-.476.113-1.251l.383-.657a1.231,1.231,0,0,0-.444-1.678l-1.731-1.007a1.231,1.231,0,0,0-1.678.444l-.381.656c-.457.786-.908.755-1.1.695-.552-.176-1.062-.29-1.632-.438-.208-.054-.564-.205-.564-1.142v-.7a1.229,1.229,0,0,0-1.227-1.227h-2a1.23,1.23,0,0,0-1.227,1.227v.7c0,.937-.356,1.088-.564,1.142-.57.149-1.08.262-1.632.438-.19.061-.641.091-1.1-.695l-.381-.656a1.23,1.23,0,0,0-1.678-.444m7.58,12.382a2.644,2.644,0,1,1-2.643,2.644,2.645,2.645,0,0,1,2.643-2.644m-8.287,2.645a.566.566,0,0,1,1.132,0,7.156,7.156,0,0,0,7.155,7.156.566.566,0,1,1,0,1.131,8.289,8.289,0,0,1-8.287-8.288M625.78,180.5a.564.564,0,1,1-1.113.176,7.165,7.165,0,0,0-5.837-5.894.565.565,0,0,1,.19-1.113,8.291,8.291,0,0,1,6.76,6.831m-8.179-8.486a9.82,9.82,0,1,1-9.82,9.82,9.82,9.82,0,0,1,9.82-9.82" transform="translate(-482.457 -132.554)" fill="#fff" fill-rule="evenodd"/>
      <path id="Path_48193" data-name="Path 48193" d="M219.419,297.457l-.962.56a.684.684,0,0,0-.247.932l.213.365c.25.431.141.626.064.695-.214.192-.413.4-.612.607-.059.06-.244.269-.734-.015l-.336-.2a.684.684,0,0,0-.933.248l-.559.961a.685.685,0,0,0,.247.933l.332.193c.459.267.447.4.389.6-.08.266-.166.534-.224.81-.052.246-.029.421-.653.421h-.382a.683.683,0,0,0-.682.683v1.113a.683.683,0,0,0,.682.682h.382c.624,0,.6.176.653.422.058.276.144.543.224.81.058.195.07.331-.389.6l-.332.193a.684.684,0,0,0-.247.933l.559.961a.683.683,0,0,0,.933.247l.336-.194c.489-.284.675-.076.734-.015.2.207.4.415.612.607.078.07.186.265-.064.7l-.213.365a.685.685,0,0,0,.247.933l.962.559a.684.684,0,0,0,.933-.247l.212-.365c.254-.437.5-.42.61-.386.307.1.59.161.907.244.116.03.313.114.313.635v.39a.684.684,0,0,0,.682.683h1.113a.684.684,0,0,0,.682-.683v-.39c0-.521.2-.605.314-.635.317-.083.6-.146.907-.244.106-.034.356-.05.61.386l.212.365a.684.684,0,0,0,.933.247l.962-.559a.685.685,0,0,0,.247-.933l-.213-.365c-.25-.431-.141-.626-.064-.7.214-.192.413-.4.612-.607.059-.06.244-.269.734.015l.336.194a.683.683,0,0,0,.933-.247l.559-.961a.684.684,0,0,0-.247-.933l-.332-.193c-.459-.266-.447-.4-.389-.6.08-.267.166-.534.224-.81.052-.246.028-.422.652-.422h.382a.683.683,0,0,0,.682-.682v-1.113a.684.684,0,0,0-.682-.683h-.382c-.624,0-.6-.175-.652-.421-.058-.277-.144-.544-.224-.81-.058-.195-.07-.331.389-.6l.332-.193a.685.685,0,0,0,.247-.933l-.559-.961a.684.684,0,0,0-.933-.248l-.336.2c-.489.284-.675.076-.734.015-.2-.208-.4-.415-.612-.607-.078-.069-.187-.264.064-.695l.213-.365a.684.684,0,0,0-.247-.932l-.962-.56a.685.685,0,0,0-.933.247l-.212.364c-.254.437-.5.42-.61.387-.307-.1-.59-.161-.907-.243-.115-.03-.314-.114-.314-.635v-.391a.683.683,0,0,0-.682-.682h-1.113a.683.683,0,0,0-.682.682v.391c0,.521-.2.605-.313.635-.317.083-.6.145-.907.243-.106.033-.356.051-.61-.387l-.212-.364a.685.685,0,0,0-.933-.247m4.214,6.882a1.47,1.47,0,1,1-1.469,1.469,1.47,1.47,0,0,1,1.469-1.469m-4.607,1.47a.314.314,0,1,1,.629,0,3.978,3.978,0,0,0,3.978,3.978.314.314,0,1,1,0,.628,4.607,4.607,0,0,1-4.607-4.606m9.153-.742a.314.314,0,0,1-.619.1,3.979,3.979,0,0,0-3.244-3.276.314.314,0,1,1,.106-.619,4.611,4.611,0,0,1,3.758,3.8m-4.546-4.716a5.458,5.458,0,1,1-5.458,5.458,5.458,5.458,0,0,1,5.458-5.458" transform="translate(-172.097 -238.066)" fill="#fff" fill-rule="evenodd"/>
    </g>
  </g>
  <text id="SCAMMED" transform="matrix(0.998, 0.066, -0.066, 0.998, 76.785, 75.305)" font-size="7" font-family="Lato-Bold, Lato" font-weight="700"><tspan x="0" y="0">SCAMMED</tspan></text>
</svg>
