<svg id="Group_53874" data-name="Group 53874" xmlns="http://www.w3.org/2000/svg" width="217.69" height="158.231" viewBox="0 0 217.69 158.231">
  <g id="Group_53810" data-name="Group 53810">
    <path id="Path_47977" data-name="Path 47977" d="M156.115,162.066c25.268,0,48.522.378,66.976,1.011C268.251,137.264,252.614,86.95,236.4,58.489c-22.567-39.609-75.892-53.846-97.949-22.243-29.938,42.9-58.819,27.928-74.414,60.505s8.089,63.81,25.1,66.326c18.454-.633,41.708-1.011,66.977-1.011M116.544,52.225c-11.559,8.8-30.678,15.615-37.027,6.262-4.743-6.989,1.1-20.1,12.543-30.039s26.757-15.946,35.107-8.632c9.91,8.68-1.722,25.634-10.623,32.409" transform="translate(-47.482 -13.351)" fill="#e8eaed" fill-rule="evenodd"/>
    <path id="Path_47978" data-name="Path 47978" d="M108.632,764.548c60,0,108.632,2.13,108.632,4.757s-48.636,4.758-108.632,4.758S0,771.933,0,769.305s48.636-4.757,108.632-4.757" transform="translate(0 -615.832)" fill="#d2deec" fill-rule="evenodd"/>
    <path id="Path_47979" data-name="Path 47979" d="M427.632,47.53c27.132,6.045,44.4,31,46.089,43.042.694,4.943-.592-6.624-14.433-17.158-12.369-9.413-22-11.158-36.714-12.295-10.4-.8-21.29-2.081-20.516-8.285.611-4.9,8.059-9.207,25.575-5.3M356.688,37.438c4.671.28,7.514,4.115,7.71,8.539.083,1.882-1.394-3.038-6.573-3.722-3.212-.424-3.694.522-4.846-.8s-.058-4.239,3.708-4.013" transform="translate(-283.969 -30.146)" fill="#fff" fill-rule="evenodd"/>
    <path id="Path_47980" data-name="Path 47980" d="M102.93,568.058c-1.239-1.551-2.982-2.832-3.493-4.75-.6-2.263.726-4.646.4-6.965-.414-2.919-3.225-4.812-4.752-7.334-1.494-2.471-.794-3.3-.93-6.186-.205-4.345-3.769-9.831-8.518-8.36-4.822,1.5-4.034,5.978-3.186,9.351.6,2.4.209,2.746-.378,5.153-.71,2.906-3,5.715-2.041,8.549.591,1.753,2.31,2.936,2.931,4.678.705,1.974-.148,4.115-.476,6.186a13.178,13.178,0,0,0,3.467,11.584,12.59,12.59,0,0,0,1.061.9c4.436-.25,9.428-.482,14.9-.689l.04-.043c2.9-3.164,3.763-8.593.979-12.076" transform="translate(-64.276 -430.305)" fill="#bad0d1" fill-rule="evenodd"/>
    <path id="Path_47981" data-name="Path 47981" d="M102.272,554.636a.381.381,0,0,0-.712.272,27.529,27.529,0,0,1,.964,3.09q-.163-.149-.339-.288a8.782,8.782,0,0,0-1.761-1.09.381.381,0,0,0-.325.689,8.035,8.035,0,0,1,1.611,1,6.526,6.526,0,0,1,1.16,1.2c.486,2.325.805,4.826,1.092,7.462a13.521,13.521,0,0,0-1.413-1.846,9.886,9.886,0,0,0-2.89-2.2.38.38,0,1,0-.337.681,9.152,9.152,0,0,1,2.667,2.041,14.258,14.258,0,0,1,2.172,3.21l.075.714c.162,1.571.328,3.183.525,4.829a.4.4,0,0,0,.006.048c.206,1.719.446,3.476.748,5.262a21.9,21.9,0,0,0-2.658-3.371,16.134,16.134,0,0,0-4.574-3.346.381.381,0,0,0-.33.687,15.369,15.369,0,0,1,4.358,3.19,22.849,22.849,0,0,1,3.6,4.993,62.491,62.491,0,0,0,1.859,7.212v0l0,.008h0q.584,1.793,1.317,3.6a21.967,21.967,0,0,0-9.485-4.793.382.382,0,1,0-.173.743,21.4,21.4,0,0,1,5.616,2.148,21.9,21.9,0,0,1,4.778,3.617q.507,1.125,1.084,2.253l.838-.036a50.939,50.939,0,0,1-3.238-7.737,14.689,14.689,0,0,1,.661-5.573,20.429,20.429,0,0,1,2.9-5.659.38.38,0,1,0-.62-.44,21.178,21.178,0,0,0-3,5.87,15.917,15.917,0,0,0-.677,3.339,80.644,80.644,0,0,1-2.24-12.013,24,24,0,0,1,1.5-4.143,8.967,8.967,0,0,1,1.787-2.6.38.38,0,1,0-.522-.553,9.7,9.7,0,0,0-1.952,2.82,21.112,21.112,0,0,0-1.031,2.569c-.112-1.017-.215-2.02-.317-3.006l-.079-.768a.375.375,0,0,0,0-.042c-.543-5.232-1.089-9.994-2.636-14.039" transform="translate(-78.726 -446.554)" fill="#fff" fill-rule="evenodd"/>
    <path id="Path_47982" data-name="Path 47982" d="M35.714,639.157c-1.322-.713-2.916-1.089-3.84-2.274-1.092-1.4-.871-3.451-1.788-4.969-1.153-1.911-3.673-2.4-5.483-3.7-1.773-1.279-1.531-2.065-2.481-4.034-1.43-2.966-5.539-5.731-8.411-3.3-2.915,2.471-1.039,5.359.551,7.456,1.133,1.494.96,1.852,1.264,3.7.366,2.234-.4,4.869,1.111,6.56.932,1.045,2.479,1.36,3.428,2.39,1.076,1.166,1.117,2.91,1.5,4.45a9.919,9.919,0,0,0,2.81,5.014c3.8-.287,8.267-.557,13.309-.8a7.464,7.464,0,0,0,.926-1.792c1.082-3.063.075-7.1-2.9-8.7" transform="translate(-9.815 -499.36)" fill="#f3af47" fill-rule="evenodd"/>
    <path id="Path_47983" data-name="Path 47983" d="M29.72,635.092a.288.288,0,1,0-.415.4,20.863,20.863,0,0,1,1.587,1.867q-.158-.054-.321-.1a6.668,6.668,0,0,0-1.55-.238A.288.288,0,0,0,29,637.6a6.113,6.113,0,0,1,1.416.215,4.951,4.951,0,0,1,1.165.493c1.028,1.475,1.99,3.123,2.971,4.875a10.162,10.162,0,0,0-1.532-.867,7.478,7.478,0,0,0-2.666-.68.287.287,0,1,0-.034.574,6.938,6.938,0,0,1,2.462.631,10.806,10.806,0,0,1,2.464,1.592l.263.476c.578,1.047,1.172,2.12,1.8,3.208a.271.271,0,0,0,.018.031c.653,1.137,1.341,2.29,2.081,3.444a16.614,16.614,0,0,0-2.85-1.56,12.2,12.2,0,0,0-4.177-.975.288.288,0,1,0-.026.576,11.626,11.626,0,0,1,3.98.931,17.309,17.309,0,0,1,3.986,2.411,47.3,47.3,0,0,0,3.432,4.474h0l0,.005h0q.937,1.076,1.984,2.119a16.632,16.632,0,0,0-8.027-.528.289.289,0,1,0,.1.568,16.219,16.219,0,0,1,4.548-.168,16.609,16.609,0,0,1,4.4,1.1q.751.694,1.562,1.366l.859-.045a38.421,38.421,0,0,1-4.973-4.775,11.113,11.113,0,0,1-1.191-4.078,15.45,15.45,0,0,1,.342-4.8.288.288,0,0,0-.563-.122,16.035,16.035,0,0,0-.352,4.978,12.068,12.068,0,0,0,.517,2.527,61.077,61.077,0,0,1-5.12-7.7,18.182,18.182,0,0,1-.183-3.329,6.768,6.768,0,0,1,.476-2.34.288.288,0,1,0-.528-.231,7.354,7.354,0,0,0-.524,2.542,15.935,15.935,0,0,0,.043,2.1q-.569-1.012-1.112-2l-.282-.511c0-.009-.01-.019-.015-.028-1.928-3.485-3.719-6.639-6-9" transform="translate(-23.135 -511.487)" fill="#fff" fill-rule="evenodd"/>
    <path id="Path_47984" data-name="Path 47984" d="M491.992,146.252c-.389,5.337-1.176,6.073-6.263,6.484,5.088.411,5.874,1.148,6.263,6.483.389-5.336,1.176-6.072,6.263-6.483-5.087-.411-5.874-1.147-6.263-6.484m20.681,14.074c-.208,2.849-.628,3.242-3.344,3.461,2.716.22,3.136.613,3.344,3.461.208-2.849.628-3.241,3.344-3.461-2.716-.219-3.136-.612-3.344-3.461M503.616,138.4c-.21,2.885-.636,3.284-3.387,3.506,2.751.222,3.177.62,3.387,3.505.21-2.885.636-3.283,3.387-3.505-2.751-.222-3.177-.621-3.387-3.506" transform="translate(-391.248 -111.478)" fill="#fff" fill-rule="evenodd"/>
    <path id="Path_47985" data-name="Path 47985" d="M398.775,602.208c.315,4.323.952,4.919,5.074,5.252-4.122.334-4.76.929-5.074,5.253-.315-4.323-.953-4.919-5.074-5.253,4.122-.333,4.76-.928,5.074-5.252m-16.754,11.4c.168,2.308.508,2.627,2.709,2.8-2.2.178-2.541.5-2.709,2.8-.168-2.308-.509-2.627-2.709-2.8,2.2-.178,2.541-.5,2.709-2.8m7.337-17.763c.17,2.338.515,2.661,2.744,2.841-2.229.18-2.574.5-2.744,2.84-.17-2.338-.515-2.66-2.744-2.84,2.229-.18,2.574-.5,2.744-2.841" transform="translate(-305.53 -479.945)" fill="#fff" fill-rule="evenodd"/>
    <path id="Path_47986" data-name="Path 47986" d="M801.793,553.6c-.241,3.31-.729,3.767-3.885,4.022,3.156.255,3.644.712,3.885,4.021.241-3.31.729-3.766,3.885-4.021-3.156-.255-3.643-.711-3.885-4.022m12.828,8.73c-.129,1.767-.389,2.01-2.074,2.147,1.685.136,1.945.38,2.074,2.147.129-1.767.39-2.011,2.075-2.147-1.685-.136-1.946-.379-2.075-2.147M809,548.726c-.131,1.79-.395,2.036-2.1,2.175,1.707.138,1.971.385,2.1,2.174.13-1.789.394-2.037,2.1-2.174-1.707-.139-1.971-.385-2.1-2.175" transform="translate(-642.703 -441.991)" fill="#fff" fill-rule="evenodd"/>
    <path id="Path_47987" data-name="Path 47987" d="M732.873,291.865c-23.208,3.563-35.2,22.505-25.275,46.771,24.763-5.6,34.625-23.744,25.275-46.771" transform="translate(-567.136 -235.093)" fill="#f3af47" fill-rule="evenodd"/>
    <path id="Path_47988" data-name="Path 47988" d="M742.26,301.531a.345.345,0,1,1,.609.324l-8.443,15.875,10.351.045a.345.345,0,0,1,0,.69l-10.714-.048-2.345,4.409a.349.349,0,0,1-.147.278l-1.8,3.38,11.46,1.8a.345.345,0,0,1-.107.681l-11.7-1.838-2.107,3.962a.25.25,0,0,1-.021.039l-2.14,4.024,8.41,1.637a.344.344,0,1,1-.132.676l-8.616-1.676-5.663,10.647a.345.345,0,1,1-.609-.324l3.808-7.16-4.217-5.322a.345.345,0,0,1,.54-.429l4.031,5.086L726.59,331l-7.813-8.924a.346.346,0,1,1,.52-.455l7.64,8.727,1.993-3.749.008-.015,2.007-3.773-6.758-10.058a.345.345,0,1,1,.574-.385l6.552,9.752,2.231-4.195.011-.021,2.385-4.484-4.108-7.974a.345.345,0,1,1,.612-.316l3.889,7.55Z" transform="translate(-578.392 -242.731)" fill="#fff" fill-rule="evenodd"/>
    <path id="Path_47989" data-name="Path 47989" d="M771.544,405.634c-20.667-11.145-41.653-3.257-48.359,22.088,23.135,10.457,41.94,1.922,48.359-22.088" transform="translate(-582.515 -322.757)" fill="#f3af47" fill-rule="evenodd"/>
    <path id="Path_47990" data-name="Path 47990" d="M767.4,414.307a.345.345,0,1,1,.291.625l-16.305,7.579,8.232,6.275a.345.345,0,0,1-.419.549l-8.521-6.5-4.528,2.105a.348.348,0,0,1-.285.132L742.4,426.69l8.059,8.344a.345.345,0,1,1-.5.479L741.733,427l-4.069,1.892-.04.018-4.133,1.92,5.724,6.375a.345.345,0,1,1-.513.46l-5.864-6.531L721.9,436.217a.345.345,0,0,1-.291-.626l7.354-3.417-.158-6.788a.345.345,0,0,1,.689-.017l.151,6.488,7.49-3.481-.855-11.831a.345.345,0,1,1,.689-.05l.836,11.568,3.85-1.79.016-.007,3.875-1.8.669-12.1a.345.345,0,1,1,.69.039l-.649,11.731,4.308-2,.022-.011,4.606-2.14,1.528-8.839a.345.345,0,1,1,.68.117l-1.447,8.368Z" transform="translate(-581.086 -330.939)" fill="#fff" fill-rule="evenodd"/>
    <path id="Path_47991" data-name="Path 47991" d="M771.53,519.939c-9.774-21.35-31.274-27.7-51.9-11.522,12.158,22.288,32.308,26.812,51.9,11.522" transform="translate(-579.651 -402.193)" fill="#f3af47" fill-rule="evenodd"/>
    <path id="Path_47992" data-name="Path 47992" d="M767.639,528.011a.345.345,0,0,1-.145.675l-17.578-3.78,2.787,9.969a.345.345,0,1,1-.665.185l-2.884-10.318-4.882-1.05a.344.344,0,0,1-.307-.065l-3.743-.805,1.4,11.515a.345.345,0,1,1-.684.083l-1.431-11.752-4.387-.943-.044-.009-4.456-.958.725,8.536a.344.344,0,1,1-.686.058l-.743-8.746-11.791-2.535a.345.345,0,0,1,.145-.675l7.928,1.7,3.965-5.511a.344.344,0,1,1,.56.4l-3.79,5.268,8.076,1.737,6.448-9.955a.346.346,0,1,1,.58.376l-6.305,9.735,4.151.892.017,0,4.178.9,7.827-9.251a.345.345,0,1,1,.527.446l-7.588,8.97,4.644,1,.024,0,4.966,1.068,6.546-6.131a.345.345,0,0,1,.472.5l-6.2,5.805Z" transform="translate(-578.222 -411.508)" fill="#fff" fill-rule="evenodd"/>
    <path id="Path_47993" data-name="Path 47993" d="M362.844,230.113l-.988.575a.7.7,0,0,0-.253.957l.218.375c.257.442.145.642.065.713-.22.2-.423.41-.628.623-.06.063-.251.276-.753-.016l-.344-.2a.7.7,0,0,0-.957.253l-.574.987a.7.7,0,0,0,.253.958l.341.2c.471.274.459.414.4.614-.082.274-.17.548-.229.832-.053.252-.029.433-.67.433h-.392a.7.7,0,0,0-.7.7v1.142a.7.7,0,0,0,.7.7h.392c.641,0,.617.18.67.433.059.284.147.558.229.832.06.2.072.34-.4.614l-.341.2a.7.7,0,0,0-.253.957l.574.987a.7.7,0,0,0,.957.253l.344-.2c.5-.292.693-.078.753-.015.2.213.408.426.628.623.08.071.192.271-.065.713l-.218.374a.7.7,0,0,0,.253.957l.988.575a.7.7,0,0,0,.957-.253l.217-.373c.261-.449.518-.431.626-.4.315.1.606.166.931.25.119.032.322.118.322.652v.4a.7.7,0,0,0,.7.7h1.142a.7.7,0,0,0,.7-.7v-.4c0-.535.2-.621.322-.652.325-.084.616-.149.931-.25.109-.034.365-.052.626.4l.217.373a.7.7,0,0,0,.957.253l.987-.575a.7.7,0,0,0,.253-.957l-.218-.374c-.257-.442-.145-.642-.065-.713.22-.2.423-.41.627-.623.061-.063.251-.277.753.015l.344.2a.7.7,0,0,0,.957-.253l.575-.987a.7.7,0,0,0-.253-.957l-.342-.2c-.471-.274-.458-.414-.4-.614.082-.274.17-.547.23-.832.053-.252.029-.433.669-.433h.392a.7.7,0,0,0,.7-.7v-1.142a.7.7,0,0,0-.7-.7h-.392c-.64,0-.616-.181-.669-.433-.06-.283-.148-.558-.23-.832-.06-.2-.072-.34.4-.614l.342-.2a.7.7,0,0,0,.253-.958l-.575-.987a.7.7,0,0,0-.957-.253l-.344.2c-.5.292-.693.079-.753.016-.2-.212-.408-.426-.627-.623-.08-.071-.192-.272.065-.713l.218-.375a.7.7,0,0,0-.253-.957l-.987-.575a.7.7,0,0,0-.957.254l-.217.373c-.261.449-.518.431-.626.4-.315-.1-.606-.165-.931-.25-.119-.031-.322-.117-.322-.652v-.4a.7.7,0,0,0-.7-.7H366.6a.7.7,0,0,0-.7.7v.4c0,.535-.2.621-.322.652-.325.085-.616.15-.931.25-.109.035-.365.053-.626-.4l-.217-.373a.7.7,0,0,0-.957-.254m4.325,7.065a1.508,1.508,0,1,1-1.508,1.508,1.508,1.508,0,0,1,1.508-1.508m-4.728,1.508a.323.323,0,0,1,.645,0,4.083,4.083,0,0,0,4.082,4.083.322.322,0,1,1,0,.645,4.727,4.727,0,0,1-4.728-4.728m9.393-.762a.322.322,0,1,1-.635.1,4.086,4.086,0,0,0-3.33-3.362.322.322,0,0,1,.108-.636,4.732,4.732,0,0,1,3.856,3.9m-4.665-4.84a5.6,5.6,0,1,1-5.6,5.6,5.6,5.6,0,0,1,5.6-5.6" transform="translate(-288.067 -184.565)" fill="#fff" fill-rule="evenodd"/>
    <path id="Path_47994" data-name="Path 47994" d="M710.068,600.563l-1.709.993a1.214,1.214,0,0,0-.438,1.656l.377.648c.445.765.251,1.111.113,1.235-.38.34-.733.71-1.086,1.077-.1.108-.434.478-1.3-.027l-.6-.346a1.215,1.215,0,0,0-1.656.438l-.994,1.708a1.214,1.214,0,0,0,.438,1.656l.59.342c.815.474.794.717.69,1.062-.141.474-.294.948-.4,1.439-.092.437-.051.749-1.158.749h-.679a1.213,1.213,0,0,0-1.211,1.211v1.976a1.213,1.213,0,0,0,1.211,1.211h.679c1.108,0,1.066.313,1.158.749.1.491.256.965.4,1.439.1.346.124.588-.69,1.062l-.59.342a1.214,1.214,0,0,0-.438,1.656l.994,1.709a1.215,1.215,0,0,0,1.656.438l.6-.345c.868-.505,1.2-.136,1.3-.028.353.368.706.737,1.086,1.077.138.124.332.47-.113,1.235l-.377.648a1.215,1.215,0,0,0,.438,1.656l1.709.993a1.214,1.214,0,0,0,1.656-.437l.376-.647c.452-.776.9-.746,1.083-.687.545.174,1.048.286,1.611.432.205.053.557.2.557,1.128v.693a1.213,1.213,0,0,0,1.211,1.211h1.976a1.213,1.213,0,0,0,1.211-1.211v-.693c0-.925.352-1.075.557-1.128.563-.146,1.065-.259,1.61-.432.188-.06.632-.09,1.084.687l.376.647a1.214,1.214,0,0,0,1.656.438l1.708-.993a1.215,1.215,0,0,0,.438-1.656l-.377-.648c-.445-.765-.251-1.111-.113-1.235.38-.34.733-.709,1.086-1.077.1-.108.434-.477,1.3.028l.6.345a1.215,1.215,0,0,0,1.656-.438l.993-1.709a1.214,1.214,0,0,0-.438-1.656l-.59-.342c-.814-.474-.793-.716-.69-1.062.142-.473.294-.948.4-1.439.092-.436.05-.749,1.158-.749h.679a1.214,1.214,0,0,0,1.212-1.211V614.4a1.213,1.213,0,0,0-1.212-1.211h-.679c-1.108,0-1.066-.312-1.158-.749-.1-.491-.256-.965-.4-1.439-.1-.345-.124-.588.69-1.062l.59-.342a1.214,1.214,0,0,0,.438-1.656l-.993-1.708a1.215,1.215,0,0,0-1.656-.438l-.6.346c-.868.505-1.2.135-1.3.027-.353-.368-.706-.737-1.086-1.077-.138-.123-.332-.47.113-1.235l.377-.648a1.215,1.215,0,0,0-.438-1.656l-1.708-.993a1.214,1.214,0,0,0-1.656.438l-.376.647c-.452.776-.9.746-1.084.686-.545-.173-1.048-.286-1.61-.432-.205-.054-.557-.2-.557-1.128v-.693a1.213,1.213,0,0,0-1.211-1.211h-1.976a1.213,1.213,0,0,0-1.211,1.211v.693c0,.926-.351,1.074-.557,1.128-.563.146-1.065.259-1.611.432-.187.059-.632.09-1.083-.686l-.376-.647a1.214,1.214,0,0,0-1.656-.438m7.482,12.221a2.609,2.609,0,1,1-2.609,2.61,2.61,2.61,0,0,1,2.609-2.61m-8.179,2.61a.558.558,0,0,1,1.117,0,7.063,7.063,0,0,0,7.063,7.063.558.558,0,1,1,0,1.117,8.18,8.18,0,0,1-8.179-8.18m16.251-1.317a.556.556,0,1,1-1.1.174,7.069,7.069,0,0,0-5.76-5.817.557.557,0,1,1,.188-1.1,8.184,8.184,0,0,1,6.672,6.742m-8.072-8.375a9.692,9.692,0,1,1-9.692,9.692,9.692,9.692,0,0,1,9.692-9.692" transform="translate(-564.686 -482.38)" fill="#bad0d1" fill-rule="evenodd"/>
    <path id="Path_47995" data-name="Path 47995" d="M329.629,0a.315.315,0,1,1-.315.315A.315.315,0,0,1,329.629,0" transform="translate(-265.258)" fill="#5e9bd3" fill-rule="evenodd"/>
    <path id="Path_47996" data-name="Path 47996" d="M329.814,3.35a.189.189,0,1,1-.189.189.189.189,0,0,1,.189-.189" transform="translate(-265.508 -2.698)" fill="#5e9bd3" fill-rule="evenodd"/>
    <path id="Path_47997" data-name="Path 47997" d="M370.175,199.279,284.48,287.8q-.88,1.457-1.787,2.916,25.544,1.043,43.764,2.866a228.544,228.544,0,0,1,29.149,4.43A103.6,103.6,0,0,0,362.33,287.8,142.966,142.966,0,0,0,375.7,255.368q7.322-25.627,9.124-59.771-3.98-4.328-7.5-3.449-3.574.893-6.766,7.137a.216.216,0,0,1-.388-.006q-5.523-11.7-15.921-16.556t-25.731-2.884l-.017,0q-2.352.112-6.571.416-4.115.3-10.031.782a148.1,148.1,0,0,1-4.469,54.225q-6.925,25.972-22.956,52.53" transform="translate(-227.705 -144.397)" fill="#fafdff" fill-rule="evenodd"/>
    <path id="Path_47998" data-name="Path 47998" d="M329.1,178.054q-2.352.112-6.571.417-4.116.3-10.031.782a148.107,148.107,0,0,1-4.468,54.225q-7.306,27.4-24.742,55.446,25.544,1.043,43.764,2.866a228.6,228.6,0,0,1,29.149,4.43q12.792-17.078,20.1-42.639,7.321-25.627,9.124-59.77-3.98-4.328-7.5-3.449-3.574.893-6.766,7.137a.216.216,0,0,1-.387-.006h0q-5.523-11.7-15.921-16.556t-25.731-2.884l-.017,0Zm-6.6-.014q4.194-.3,6.577-.417,15.434-1.993,25.956,2.923,10.364,4.841,15.942,16.37,3.2-6.062,6.845-6.975,3.794-.948,7.982,3.644a.216.216,0,0,1,.056.157q-1.8,34.252-9.144,59.957t-20.252,42.894a.217.217,0,0,1-.222.081,226.972,226.972,0,0,0-29.231-4.454q-18.334-1.834-44.1-2.878a.215.215,0,0,1-.186-.329q17.558-28.159,24.887-55.644a147.649,147.649,0,0,0,4.435-54.279l0-.018a.216.216,0,0,1,.2-.232q6.033-.495,10.255-.8" transform="translate(-227.705 -142.609)" fill="#5e9bd3" fill-rule="evenodd"/>
    <path id="Path_47999" data-name="Path 47999" d="M635.017,188.484q15.24,13.378,16.072,25.465,1.705-5.431,2.649-9.364-6.483-12.081-18.72-16.1" transform="translate(-511.497 -151.821)" fill="#deecf8" fill-rule="evenodd"/>
    <path id="Path_48000" data-name="Path 48000" d="M611.615,193.086c-9.31-13.733-24.529-18.253-48.379-16.466a43.8,43.8,0,0,1,13.962,2.008q12.237,4.022,18.72,16.1.53.986,1.02,2.025,6.474-12.664,14.676-3.669" transform="translate(-453.679 -141.965)" fill="#76bcc4" fill-rule="evenodd"/>
    <path id="Path_48001" data-name="Path 48001" d="M609.115,190.342a34.774,34.774,0,0,0-17.2-12c-6.894-2.275-15.165-3.085-25.036-2.67q1.453.117,2.847.318a38.99,38.99,0,0,1,6.644,1.536,31.609,31.609,0,0,1,10.873,6.077,35.017,35.017,0,0,1,7.972,10.127q.265.493.523,1.007.159.315.315.637,3.2-6.062,6.845-6.974,2.987-.746,6.218,1.942m-17.065-12.41a35.261,35.261,0,0,1,18.839,14.124.216.216,0,0,1-.329.281q-4.014-4.4-7.558-3.515-3.572.892-6.762,7.129a.216.216,0,0,1-.392,0q-.243-.515-.5-1.019t-.518-1a34.568,34.568,0,0,0-7.872-10,31.188,31.188,0,0,0-10.725-6,38.468,38.468,0,0,0-6.571-1.518,49.474,49.474,0,0,0-7.307-.479h0a.216.216,0,0,1-.032-.432c11.953-.9,21.748-.21,29.726,2.423" transform="translate(-452.783 -141.07)" fill="#5e9bd3" fill-rule="evenodd"/>
    <path id="Path_48002" data-name="Path 48002" d="M487.238,273.95a.27.27,0,0,1-.019-.54l34.485-1.27a.27.27,0,0,1,.019.54Z" transform="translate(-392.239 -219.205)" fill="#88b9e3" fill-rule="evenodd"/>
    <path id="Path_48003" data-name="Path 48003" d="M548.388,339.319a.27.27,0,1,1-.008-.539l24.221-.43a.27.27,0,1,1,.009.539Z" transform="translate(-441.498 -272.536)" fill="#88b9e3" fill-rule="evenodd"/>
    <path id="Path_48004" data-name="Path 48004" d="M484.06,360.972a.27.27,0,0,1-.015-.54l50.924-1.454a.27.27,0,1,1,.014.54Z" transform="translate(-389.68 -289.152)" fill="#88b9e3" fill-rule="evenodd"/>
    <path id="Path_48005" data-name="Path 48005" d="M480.649,391.044a.27.27,0,1,1-.011-.539l20.2-.43a.27.27,0,0,1,.01.54Z" transform="translate(-386.934 -314.2)" fill="#88b9e3" fill-rule="evenodd"/>
    <path id="Path_48006" data-name="Path 48006" d="M477.316,404.954a.27.27,0,0,1-.01-.54l10.732-.237a.27.27,0,1,1,.01.54Z" transform="translate(-384.25 -325.559)" fill="#88b9e3" fill-rule="evenodd"/>
    <path id="Path_48007" data-name="Path 48007" d="M472.727,432.015a.27.27,0,1,1-.007-.54l21.74-.287a.27.27,0,0,1,.006.54Z" transform="translate(-380.555 -347.316)" fill="#88b9e3" fill-rule="evenodd"/>
    <path id="Path_48008" data-name="Path 48008" d="M604.753,432.015a.27.27,0,0,1-.006-.54l20.782-.287a.27.27,0,1,1,.006.54Z" transform="translate(-486.9 -347.316)" fill="#88b9e3" fill-rule="evenodd"/>
    <path id="Path_48009" data-name="Path 48009" d="M467.7,451.975a.27.27,0,1,1,0-.539l37.121-.287a.27.27,0,0,1,0,.539Z" transform="translate(-376.506 -363.394)" fill="#88b9e3" fill-rule="evenodd"/>
    <path id="Path_48010" data-name="Path 48010" d="M462.57,471.906a.27.27,0,1,1-.007-.539l20.782-.286a.27.27,0,1,1,.006.539Z" transform="translate(-372.374 -379.449)" fill="#88b9e3" fill-rule="evenodd"/>
    <path id="Path_48011" data-name="Path 48011" d="M457.229,491.895a.27.27,0,0,1,0-.54l24.737-.286a.27.27,0,1,1,0,.539Z" transform="translate(-368.072 -395.549)" fill="#88b9e3" fill-rule="evenodd"/>
    <path id="Path_48012" data-name="Path 48012" d="M451.814,511.851a.27.27,0,1,1,0-.54l52.382-.287a.27.27,0,0,1,0,.54Z" transform="translate(-363.712 -411.623)" fill="#88b9e3" fill-rule="evenodd"/>
    <path id="Path_48013" data-name="Path 48013" d="M671.977,451.974a.27.27,0,1,1-.016-.539l8.854-.287a.27.27,0,1,1,.017.539Z" transform="translate(-541.044 -363.394)" fill="#88b9e3" fill-rule="evenodd"/>
    <path id="Path_48014" data-name="Path 48014" d="M590.017,469.96a.27.27,0,0,1,0-.54l25.01-.287a.27.27,0,0,1,0,.54Z" transform="translate(-475.031 -377.881)" fill="#88b9e3" fill-rule="evenodd"/>
    <path id="Path_48015" data-name="Path 48015" d="M604.308,490.255a.27.27,0,0,1-.006-.54l20.781-.286a.27.27,0,0,1,.006.54Z" transform="translate(-486.542 -394.228)" fill="#88b9e3" fill-rule="evenodd"/>
    <path id="Path_48016" data-name="Path 48016" d="M440.116,544.751a.27.27,0,1,1,0-.539l51.557-.287a.27.27,0,1,1,0,.54Z" transform="translate(-354.289 -438.124)" fill="#88b9e3" fill-rule="evenodd"/>
    <path id="Path_48017" data-name="Path 48017" d="M425.476,585.118a.27.27,0,1,1-.009-.539l22.511-.43a.27.27,0,0,1,.009.54Z" transform="translate(-342.494 -470.524)" fill="#88b9e3" fill-rule="evenodd"/>
    <path id="Path_48018" data-name="Path 48018" d="M418.715,600.653a.27.27,0,0,1-.009-.54l13.416-.237a.27.27,0,1,1,.008.54Z" transform="translate(-337.048 -483.191)" fill="#88b9e3" fill-rule="evenodd"/>
    <path id="Path_48019" data-name="Path 48019" d="M493,598.065l1.667-.3.132.738-1.667.3a1.324,1.324,0,0,0-1.066,1.53l1.789,10a1.324,1.324,0,0,0,1.53,1.065l8.336-1.49.132.738-8.335,1.491a2.074,2.074,0,0,1-2.4-1.672l-1.789-10a2.074,2.074,0,0,1,1.672-2.4m5-.895.132.739,10.836-1.938-.132-.739Zm14.17-2.534,8.325-1.49.132.739-8.325,1.489Zm11.66-2.085,4.178-.747a2.073,2.073,0,0,1,2.4,1.672l1.789,10a2.075,2.075,0,0,1-1.672,2.4l-1.443.258-.132-.739,1.443-.258a1.324,1.324,0,0,0,1.066-1.53l-1.789-10a1.323,1.323,0,0,0-1.53-1.066l-4.178.747Zm1.918,14.183-.132-.739-18.563,3.319.132.739Z" transform="translate(-395.729 -476.664)" fill="#f5916f" fill-rule="evenodd"/>
    <path id="Path_48020" data-name="Path 48020" d="M518,626.412a2.776,2.776,0,0,1,.324-2.081,2.325,2.325,0,0,1,1.611-1.018,2.46,2.46,0,0,1,1.317.107,2.212,2.212,0,0,1,1.019.776,3.057,3.057,0,0,1,.535,1.3,3,3,0,0,1-.065,1.424,2.14,2.14,0,0,1-.712,1.072,2.554,2.554,0,0,1-1.168.529,2.426,2.426,0,0,1-1.333-.117,2.239,2.239,0,0,1-1.016-.785,2.876,2.876,0,0,1-.513-1.2m.692-.111a2.041,2.041,0,0,0,.744,1.344,1.737,1.737,0,0,0,2.465-.446,2.167,2.167,0,0,0,.217-1.585,2.612,2.612,0,0,0-.4-1.034,1.611,1.611,0,0,0-.734-.6,1.672,1.672,0,0,0-.943-.092,1.73,1.73,0,0,0-1.13.7,2.2,2.2,0,0,0-.22,1.71m5.456,1.541-.9-5.036,3.4-.607.106.59-2.729.488.28,1.569,2.364-.423.106.591-2.363.422.409,2.285Zm4.3-.768-.9-5.035,3.4-.608.106.59-2.728.489.28,1.568,2.363-.423.105.591-2.363.423.409,2.286Zm4.373-.782-.9-5.036.668-.119.9,5.036Zm5.112-2.737.7.049a2.272,2.272,0,0,1-.528,1.385,2.1,2.1,0,0,1-1.253.669,2.415,2.415,0,0,1-1.381-.1,2.089,2.089,0,0,1-.946-.82,3.5,3.5,0,0,1-.507-1.3,3.016,3.016,0,0,1,.055-1.425,2.1,2.1,0,0,1,.7-1.043,2.528,2.528,0,0,1,1.165-.521,2.083,2.083,0,0,1,1.338.157,2.028,2.028,0,0,1,.911.952l-.626.271a1.573,1.573,0,0,0-.651-.708,1.369,1.369,0,0,0-.882-.1,1.654,1.654,0,0,0-.919.451,1.491,1.491,0,0,0-.412.844,3.051,3.051,0,0,0,.015,1,3.131,3.131,0,0,0,.386,1.087,1.415,1.415,0,0,0,.708.612,1.643,1.643,0,0,0,.895.084,1.444,1.444,0,0,0,.887-.491,1.682,1.682,0,0,0,.352-1.052m1.921,1.48-.9-5.035.668-.12.9,5.036Zm1.289-.231,1.031-5.381.733-.132,2.95,4.67-.758.135-.856-1.422-2.12.38-.273,1.624Zm1.079-2.326,1.716-.307-.775-1.3q-.351-.594-.549-.987a7.216,7.216,0,0,1-.1,1.019Zm4.136,1.393,3.143-.562-.106-.591-2.476.443-.795-4.445-.668.119Z" transform="translate(-417.193 -498.367)" fill="#f5916f" fill-rule="evenodd"/>
    <path id="Path_48021" data-name="Path 48021" d="M532.055,676.726a2.68,2.68,0,0,0-1.318.567,1.621,1.621,0,0,1-.089.461.95.95,0,0,1,.617-.046c.507.182.608,1-.067,2.882a6.828,6.828,0,0,1-.5,1.081c2.862.325,5.11.7,5.173,1.052l0,.016v.008l.021.209h-.21c-1.452,0-2.523.02-3.334.035a7.826,7.826,0,0,1-2.328-.095c-.391-.187-.251-.443.044-.917-.523-.053-1.063-.106-1.61-.158-.072.368-.567.572-1.372.652h0c-.253.025-.541.038-.857.041-.772,1-1.409,1.712-1.839,1.712-.348,0-.543-.334-.543-1.134,0-.24-.007-.469-.021-.688l-.284-.025c-6.3-.568-16.666-2.734-16.719-2.755a6.359,6.359,0,0,1-2.378-1.282c-.348-.411-.232-.74.21-1a4.978,4.978,0,0,1,1.626-.459,42.752,42.752,0,0,1,8.148-.133c.5.063,1.062.129,1.6.191,4.52.531,7.279.855,8.006,4.121.84.063,1.726.134,2.62.211.129-.178.286-.377.462-.588-1.24-1.137-1.161-2.2-.538-3a3.93,3.93,0,0,1,2.061-1.261,1.913,1.913,0,0,1,1.92.285.776.776,0,0,1,.109.177,2.877,2.877,0,0,1,1.364-.543Zm-1.718.882a10.761,10.761,0,0,0-.865.83,6.6,6.6,0,0,1,.724-.476,2.057,2.057,0,0,0,.141-.354m-2.6,2.908-.1.124.06.047.03.024a15.23,15.23,0,0,0,1.95-1.97,15.756,15.756,0,0,0-1.229,1.071c-.249.239-.492.478-.716.7m-.327.428-.095.125.122-.1Zm-.057-.553a18.582,18.582,0,0,1,2.994-3.276.5.5,0,0,0-.089-.164c-.245-.3-.865-.329-1.531-.157a3.539,3.539,0,0,0-1.854,1.127c-.5.645-.549,1.512.48,2.47m-.8,1.7-.031.041c.188-.007.363-.017.524-.032.56-.055.92-.155,1.01-.311l-.9-.083-.024.02a2.1,2.1,0,0,1-.576.365m-2.167,1.759c.255,0,.743-.544,1.36-1.333-.466-.009-.983-.036-1.538-.077q.017.315.017.658c0,.53.058.752.161.752m1.652-1.711c.115-.15.234-.307.356-.469l.016-.029c-.785-.067-1.563-.129-2.305-.185q.047.287.076.6c.687.053,1.314.083,1.857.083m-2.247-.115c-.022-.21-.051-.408-.088-.6-2.14-.157-3.939-.257-4.715-.257a2.47,2.47,0,0,0-.334.014l-.165.03-.051-.161-.648-2.07.364-.113.6,1.924c.065,0,.141,0,.231,0,.765,0,2.525.1,4.629.25-.754-2.9-3.381-3.212-7.636-3.711-.484-.057-.993-.116-1.6-.193a42.166,42.166,0,0,0-8.045.134,4.661,4.661,0,0,0-1.49.409c-.2.117-.254.256-.111.425a6.117,6.117,0,0,0,2.221,1.172c.051.019,10.35,2.166,16.618,2.731h0Zm4.119-.631a2.216,2.216,0,0,0-.172-.176l-.17.144Zm.117-.427a1.69,1.69,0,0,1,.369.472c.644.061,1.278.125,1.889.193a6.706,6.706,0,0,0,.556-1.163c.582-1.619.592-2.29.3-2.4a.973.973,0,0,0-.7.172,11.034,11.034,0,0,1-2.408,2.721m2.462,1.063-.062.1c-.172.277-.262.422-.241.432a8.925,8.925,0,0,0,2.158.057c.659-.012,1.481-.027,2.472-.033-.861-.163-2.46-.36-4.328-.554" transform="translate(-406.156 -544.759)" fill="#4189c9" fill-rule="evenodd"/>
    <path id="Path_48022" data-name="Path 48022" d="M248.724,399.876c.129.172-.341.541-.142.608.054,1.427,3.472,3.3,4.092,2.67.861-.878-.268-5.6,1.348-6.109,3.28-1.025,5.657,4.23,7.076,3.644,2.889-1.189,5.408-7.374,1.113-10.763-2.092-2.564-.011-10.9-4.674-12.449-6.245-2.7-11.462,18.927-8.812,22.4" transform="translate(-199.775 -303.865)" fill="#205760" fill-rule="evenodd"/>
    <path id="Path_48023" data-name="Path 48023" d="M312.219,563.614a1.735,1.735,0,0,0,1.577.452,1.066,1.066,0,0,1-1.577-.452" transform="translate(-251.488 -453.983)" fill="#f48661" fill-rule="evenodd"/>
    <path id="Path_48024" data-name="Path 48024" d="M310.867,756.349a9.773,9.773,0,0,1,.6-3.42c-.98,0-1.8-.432-2.805-.417-.274,1.6-.7,4.226-.7,4.226l-.046,2.078,6.976.052a16.533,16.533,0,0,1-2.116-1.269c-.152-.1-1.831-.64-1.915-1.25" transform="translate(-248.027 -606.137)" fill="#f9af79" fill-rule="evenodd"/>
    <path id="Path_48025" data-name="Path 48025" d="M306.952,776.72h7.2c.266-.024.332-.241.24-.374a12.457,12.457,0,0,0-2.539-1.377c-1.655.173-4.567-.508-4.829-.891a3.715,3.715,0,0,0-.07,2.642" transform="translate(-247.089 -623.509)" fill="#263c84" fill-rule="evenodd"/>
    <path id="Path_48026" data-name="Path 48026" d="M266.2,756.919a11.885,11.885,0,0,1-.018-3.532c-.981,0-1.914-.182-2.915-.167,0,1.646.034,4.088.034,4.088l-.044,2.078,6.974.052a16.5,16.5,0,0,1-2.114-1.269c-.153-.1-1.832-.64-1.917-1.25" transform="translate(-212.052 -606.708)" fill="#f9af79" fill-rule="evenodd"/>
    <path id="Path_48027" data-name="Path 48027" d="M262.282,776.72h7.2c.266-.024.33-.241.238-.374a12.384,12.384,0,0,0-2.539-1.377c-1.656.173-4.565-.508-4.826-.891a3.708,3.708,0,0,0-.073,2.642" transform="translate(-211.109 -623.509)" fill="#263c84" fill-rule="evenodd"/>
    <path id="Path_48028" data-name="Path 48028" d="M304.447,410.279l2.624-2.767s2.807,1.545,6.081,3.02a52.753,52.753,0,0,0,2.449-6.964c.079-.248-1.72-3.342-1.319-3.419s.926,1.652,1.352,1.477,1.519-4.189,1.775-3.97c.479.41-.577,2.5-.324,2.648s.894-2.313,1.381-2.209-.822,2.243-.679,2.45,1.516-1.8,1.8-1.335c.153.251-1.265,1.746-.973,1.915s1.57-.776,1.721-.47-1.192.623-1.566,1.4-1.052,1.072-1.278,2.532-.841,9.261-2.431,9.887c-1.389.547-10.612-4.19-10.612-4.19" transform="translate(-245.228 -320.298)" fill="#f9af79" fill-rule="evenodd"/>
    <path id="Path_48029" data-name="Path 48029" d="M286.448,539.346l-2.127,1.187L280,547.144l7.733,18.205s-.871,2.737-1.155,4.1c-.3,1.431-1.025,13.712-1.025,13.712l3.3.056s3.134-13.075,3.665-17.319c.644-5.154-3.281-17.427-3.281-17.427-.731-2.5-2.308-7.655-2.308-7.655s-.386-1.256-.477-1.475" transform="translate(-225.533 -434.435)" fill="#205760" fill-rule="evenodd"/>
    <path id="Path_48030" data-name="Path 48030" d="M256.857,526.577a6.22,6.22,0,0,1-.66,3.33c-.536,1.081-1.463,1.93-2.127,3.254a14.728,14.728,0,0,0-1.467,8.359s2.6,9.913,2.494,13.536a46.512,46.512,0,0,1-.789,5.371c-.26,1.438-.348,12.29-.348,12.29l3.686-.111,2.82-17.505,1.194-15.559,2.6-10.481Z" transform="translate(-203.348 -424.15)" fill="#205760" fill-rule="evenodd"/>
    <path id="Path_48031" data-name="Path 48031" d="M251.805,447.777c1.173.544,3.3,1.357,3.3,1.357l1.208-3.825c-6.838-3.891-6.3-3.262-11.431-3.186-4.1.059-5.82-.725-9.35,8.807,0,0,2.688,1.208,3.65,1.6.415-1.179,1.161-3.529,1.6-2.189a38.884,38.884,0,0,1,1.465,6.17,13.033,13.033,0,0,1,.418,4.112,38.126,38.126,0,0,0,4.925.67h.018a16.823,16.823,0,0,0,3.026-.321s.418-8.84.641-9.211a3.546,3.546,0,0,0,.4-3.7c-.159-.349-.117-.389.126-.278" transform="translate(-189.718 -356.058)" fill="#76bcc4" fill-rule="evenodd"/>
    <path id="Path_48032" data-name="Path 48032" d="M283.554,420.652s-.314,2.525-.5,3.4c-.192.917-.482,3.807,1.42,4.276s1.313-3.142,1.345-4.076.57-4.184.57-4.184Z" transform="translate(-227.885 -338.359)" fill="#f9af79" fill-rule="evenodd"/>
    <path id="Path_48033" data-name="Path 48033" d="M284.817,427.358l.057.036a2.381,2.381,0,0,0,2.652.039c.123-.808.231-1.464.231-1.464l-2.838.584s-.042.337-.1.806" transform="translate(-229.416 -343.111)" fill="#f27458" fill-rule="evenodd"/>
    <path id="Path_48034" data-name="Path 48034" d="M279.858,395.39a3.254,3.254,0,0,0-1.9,1.216c-.761,1.028-1.433,4.15.767,5.762s4.11-.362,4.264-2.39-.108-4.764-3.127-4.589" transform="translate(-223.302 -318.474)" fill="#f9af79" fill-rule="evenodd"/>
    <path id="Path_48035" data-name="Path 48035" d="M268.838,384.2c-1.4-1.643-1.469-.785-1.684-3.107-.051-6.4,7.469-6.456,7.1-3.028.627.736.1,1.086-.441,1.555-4.539,3.915-4.631-.8-4.975,4.58" transform="translate(-215.189 -302.705)" fill="#205760" fill-rule="evenodd"/>
    <path id="Path_48036" data-name="Path 48036" d="M299.662,380.661q-.678.062-.762-.4a1.979,1.979,0,0,1,1.347-1.043,2.537,2.537,0,0,0-.585,1.446" transform="translate(-240.76 -305.452)" fill="#263c84" fill-rule="evenodd"/>
    <path id="Path_48037" data-name="Path 48037" d="M299.647,381.327c.3.057.4-.05.325-.325a2.781,2.781,0,0,0-1.222-.991,4.932,4.932,0,0,1,.9,1.316" transform="translate(-240.639 -306.093)" fill="#263c84" fill-rule="evenodd"/>
    <path id="Path_48038" data-name="Path 48038" d="M302.233,399.376a8.379,8.379,0,0,0-.223-3.315c-.332-1.643-1.5-.916-.973-.111,1.029,1.57.747,1.053,1.2,3.427" transform="translate(-242.373 -318.225)" fill="#263c84" fill-rule="evenodd"/>
    <path id="Path_48039" data-name="Path 48039" d="M297.458,387.654q-.617-.492-.314-.95a2.292,2.292,0,0,1,1.964.209,2.936,2.936,0,0,0-1.65.741" transform="translate(-239.265 -311.382)" fill="#263c84" fill-rule="evenodd"/>
    <path id="Path_48040" data-name="Path 48040" d="M295.172,394.961q.7.074.667.622a2.085,2.085,0,0,1-1.608.9,3.15,3.15,0,0,0,.94-1.519" transform="translate(-237 -318.135)" fill="#263c84" fill-rule="evenodd"/>
    <path id="Path_48041" data-name="Path 48041" d="M304.611,404.55c.021.439-.166.805-.42.818s-.478-.332-.5-.771.165-.806.419-.818.477.333.5.771" transform="translate(-244.619 -325.238)" fill="#f9af79" fill-rule="evenodd"/>
    <path id="Path_48042" data-name="Path 48042" d="M274.331,408.335c.028.449-.194.829-.5.849s-.567-.326-.594-.776.193-.829.494-.849.567.326.6.776" transform="translate(-220.089 -328.283)" fill="#f9af79" fill-rule="evenodd"/>
    <path id="Path_48043" data-name="Path 48043" d="M285.121,442.045c0,2.184-.137,3.2-.6,3.776a1.209,1.209,0,0,1-.325.287.439.439,0,0,1,.015.113.459.459,0,0,1-.164.348.3.3,0,0,1,.046.159.323.323,0,0,1-.192.287.166.166,0,0,1,.031.1.2.2,0,0,1-.4,0,.169.169,0,0,1,.031-.1.323.323,0,0,1-.191-.287.292.292,0,0,1,.017-.1.474.474,0,0,1-.253-.41.429.429,0,0,1,.027-.152,1.646,1.646,0,0,1-.318-.252,4.94,4.94,0,0,1-1.115-3.688l.3,0a4.515,4.515,0,0,0,.993,3.511,1.419,1.419,0,0,0,.287.224.583.583,0,0,1,.755.027.966.966,0,0,0,.26-.229c.429-.53.534-1.654.532-3.612Z" transform="translate(-226.917 -356.061)" fill="#5e9bd3" fill-rule="evenodd"/>
    <path id="Path_48044" data-name="Path 48044" d="M334.71,457.425c-.337,1.073-.6,1.915-.812,2.564s-.352,1.092-.429,1.311l-.182-.07c.076-.219.219-.65.426-1.3s.482-1.529.82-2.6Z" transform="translate(-268.458 -368.369)" fill="#5e9bd3" fill-rule="evenodd"/>
    <path id="Path_48045" data-name="Path 48045" d="M236.136,485.378q1.423.508,2.361.874c.618.241,1.056.427,1.334.566l-.065.184c-.272-.136-.726-.331-1.339-.569s-1.392-.527-2.356-.872Z" transform="translate(-190.152 -390.965)" fill="#5e9bd3" fill-rule="evenodd"/>
    <path id="Path_48046" data-name="Path 48046" d="M236.729,483.792q1.423.508,2.361.875c.618.24,1.048.422,1.326.562l-.067.184c-.271-.136-.716-.327-1.329-.566s-1.4-.526-2.361-.871Z" transform="translate(-190.625 -389.688)" fill="#5e9bd3" fill-rule="evenodd"/>
    <path id="Path_48047" data-name="Path 48047" d="M333.013,456.51c-.337,1.073-.6,1.9-.808,2.552s-.372,1.152-.449,1.372l-.184-.073c.077-.218.24-.71.449-1.36s.48-1.516.818-2.591Z" transform="translate(-267.077 -367.633)" fill="#5e9bd3" fill-rule="evenodd"/>
    <rect id="Rectangle_5653" data-name="Rectangle 5653" width="74.254" height="7.067" transform="translate(37.439 140.572) rotate(-63.922)" fill="#3d727b"/>
    <rect id="Rectangle_5654" data-name="Rectangle 5654" width="74.254" height="3.043" transform="matrix(0.44, -0.898, 0.898, 0.44, 39.249, 141.458)" fill="#bcdbf3"/>
    <path id="Path_48048" data-name="Path 48048" d="M192.161,725.79l-7.958,8.222,1.61-11.328Z" transform="translate(-148.374 -582.111)" fill="#bcdbf3" fill-rule="evenodd"/>
    <path id="Path_48049" data-name="Path 48049" d="M360.279,351.98l2.561-5.233a2.661,2.661,0,0,1,3.549-1.217l1.581.774a2.66,2.66,0,0,1,1.217,3.549l-2.561,5.233Z" transform="translate(-290.2 -278.103)" fill="#76bcc4" fill-rule="evenodd"/>
    <path id="Path_48050" data-name="Path 48050" d="M184.815,754.846l-.611,4.3,3.019-3.119c.182-1.01.024-1.815-.483-2.064s-1.24.123-1.925.885" transform="translate(-148.374 -607.243)" fill="#5e9bd3" fill-rule="evenodd"/>
    <path id="Path_48051" data-name="Path 48051" d="M240.244,500.634c.049.006.266-.023.445-.019a3.628,3.628,0,0,1,.462.042,1.239,1.239,0,0,1,.281-.168c.078-.036.2-.049.288-.089s.164-.117.246-.153c.218-.095.418-.117.484,0,.056.1-1.156.835-1.156.835a6.141,6.141,0,0,1-4.9-1.117c-1.484-.649-8.694-4.211-8.839-4.987a41.868,41.868,0,0,1,1.929-6.368c.7.312,2.18.972,3.009,1.319a18.672,18.672,0,0,0-1.564,4.012c.023.069.114.192,4.988,3.383.123.079.249.163.376.246l1.1.717,1.389-.145s2.2.152,2.269.4c.028.115-.155.172-.379.206h-.007l-.1.011h0c-.244.03-.5.034-.56.056a1.528,1.528,0,0,0-.332.162c1.374.561,1.267.362,1.722.333.115-.009.236.025.345.017.183-.017.332-.126.473-.135a.622.622,0,0,1,.416.125c.049.049-.042.12-.217.2a5.941,5.941,0,0,1-2.22.352c-.188.046.157.117.7.06a2.816,2.816,0,0,0,.487-.008c.119-.026.227-.1.344-.131s.217-.026.309-.042c.118-.022.283-.113.377-.123a.906.906,0,0,1,.563.054,9.246,9.246,0,0,1-1.518.686s-1.1.158-1.349.158c0,0-.148.068.14.112" transform="translate(-183.291 -393.568)" fill="#f9af79" fill-rule="evenodd"/>
    <path id="Path_48052" data-name="Path 48052" d="M118.305,378.047l-1.183.688a.84.84,0,0,0-.3,1.146l.261.449c.308.53.174.77.078.855-.264.235-.507.492-.752.746-.072.075-.3.33-.9-.02l-.413-.239a.841.841,0,0,0-1.147.3l-.688,1.183a.842.842,0,0,0,.3,1.147l.409.237c.564.328.549.5.478.736-.1.328-.2.656-.275,1-.064.3-.035.519-.8.519h-.47a.84.84,0,0,0-.839.838V389a.84.84,0,0,0,.839.84h.47c.767,0,.738.216.8.519.072.34.177.668.275,1,.071.239.086.408-.478.736l-.409.238a.84.84,0,0,0-.3,1.146l.688,1.183a.841.841,0,0,0,1.147.3l.413-.239c.6-.349.83-.094.9-.019.245.255.489.511.752.746.1.086.23.325-.078.855l-.261.449a.84.84,0,0,0,.3,1.146l1.183.688a.84.84,0,0,0,1.146-.3l.261-.448c.313-.537.62-.516.751-.475.377.119.725.2,1.115.3.142.037.386.141.386.781v.48a.841.841,0,0,0,.839.839h1.369a.841.841,0,0,0,.839-.839v-.48c0-.64.244-.744.386-.781.389-.1.738-.179,1.115-.3.13-.042.438-.063.75.475l.26.448a.841.841,0,0,0,1.147.3l1.183-.688a.841.841,0,0,0,.3-1.146l-.261-.449c-.308-.53-.174-.769-.079-.855.263-.235.508-.491.753-.746.072-.075.3-.33.9.019l.413.239a.841.841,0,0,0,1.147-.3l.688-1.183a.84.84,0,0,0-.3-1.146l-.409-.238c-.564-.328-.549-.5-.478-.736.1-.328.2-.656.275-1,.064-.3.035-.519.8-.519h.47a.841.841,0,0,0,.839-.84v-1.368a.84.84,0,0,0-.839-.838h-.47c-.767,0-.738-.216-.8-.519-.072-.34-.177-.668-.275-1-.072-.24-.086-.408.478-.736l.409-.237a.841.841,0,0,0,.3-1.147l-.688-1.183a.841.841,0,0,0-1.147-.3l-.413.239c-.6.35-.83.095-.9.02-.245-.255-.489-.511-.753-.746-.1-.085-.23-.325.079-.855l.261-.449a.841.841,0,0,0-.3-1.146l-1.183-.688a.841.841,0,0,0-1.147.3l-.26.448c-.313.538-.621.516-.75.476-.377-.12-.726-.2-1.115-.3-.142-.037-.386-.141-.386-.781v-.48a.841.841,0,0,0-.839-.839H122.8a.841.841,0,0,0-.839.839v.48c0,.64-.244.744-.386.781-.389.1-.738.179-1.115.3-.131.041-.438.062-.751-.476l-.261-.448a.84.84,0,0,0-1.146-.3m5.181,8.464a1.807,1.807,0,1,1-1.807,1.807,1.807,1.807,0,0,1,1.807-1.807m-5.665,1.807a.387.387,0,1,1,.774,0,4.891,4.891,0,0,0,4.891,4.891.387.387,0,0,1,0,.774,5.666,5.666,0,0,1-5.665-5.665m11.254-.913a.385.385,0,0,1-.761.121,4.9,4.9,0,0,0-3.989-4.029.386.386,0,1,1,.13-.761,5.668,5.668,0,0,1,4.62,4.669m-5.59-5.8a6.712,6.712,0,1,1-6.712,6.713,6.712,6.712,0,0,1,6.712-6.713" transform="translate(-90.263 -303.567)" fill="#fff" fill-rule="evenodd"/>
    <path id="Path_48053" data-name="Path 48053" d="M1008.688,608.855c2.488,2.271,1.407,4.544-.432,8.764s-2.164,19.8-2.164,19.8l1.514-.216s-.217-16.013,1.839-20.342,2.922-6.491,4.761-5.085-5.519-2.922-5.519-2.922" transform="translate(-810.393 -490.424)" fill="#d2deec" fill-rule="evenodd"/>
    <path id="Path_48054" data-name="Path 48054" d="M1011.858,564.656c.3-1.347,2.1-2.8,4.5-4.04-.358,1.986-1.5,5.234-.318,5.9,1.6.9.155-3.637.771-6.128a29.624,29.624,0,0,1,7.463-2.448.121.121,0,0,0-.01.027c-1.406,3.571-3.245,4.977-2.488,5.518.568.407,2.424-3.717,4.876-5.831a6.588,6.588,0,0,1,4.315.88c1.423,1.126,2.378,2.125.948,5.556a6.437,6.437,0,0,1-3.107,1.127c-3.245.325-4.762.432-2.488,1.515,1.113.529,2.975-.03,4.489-.372-.489.9-1.094,1.927-1.827,3.092a11.51,11.51,0,0,1-1.521,1.936,4.789,4.789,0,0,1-2.44,0c-1.514-.649-5.409-2.705-6.383-1.839-.953.847,7.214,1.384,6.648,3.537-3.959,2.28-8.489,1.195-9.289-.9-1.077-2.812-5.046-3.474-4.136-7.528" transform="translate(-814.929 -449.167)" fill="#bad0d1" fill-rule="evenodd"/>
    <path id="Path_48055" data-name="Path 48055" d="M1003.769,667.088c-4.33-3.247-8.764-.217-11.037,3.246s-.649,11.252-.649,11.252.867,0,.867-.324-2.381-9.2,3.245-13.2c3.52-2.5,6.058-1.3,6.383-.108s-1.406,3.354-1.406,3.354Z" transform="translate(-798.656 -536.214)" fill="#d2deec" fill-rule="evenodd"/>
    <path id="Path_48056" data-name="Path 48056" d="M1002.51,638.521c4.33,0,5.736,6.708,4.544,10.6s-2.813,11.144-2.813,11.144l-1.082-1.082s4.112-10.17,3.138-14.715-3.353-5.3-3.787-5.3,0-.649,0-.649" transform="translate(-807.353 -514.32)" fill="#d2deec" fill-rule="evenodd"/>
    <path id="Path_48057" data-name="Path 48057" d="M1017.466,689.219a3.16,3.16,0,0,1,1.139-.959,8.146,8.146,0,0,1-.224.929c-.542,1.775-1.172,4.245-1.7,6.409-.045-.276-.122-.7-.234-1.362-.029-.157-.048-.325-.065-.5a41.3,41.3,0,0,0,1.087-4.513" transform="translate(-818.679 -554.384)" fill="#d2deec" fill-rule="evenodd"/>
    <path id="Path_48058" data-name="Path 48058" d="M1018.788,668.092c8.221-3.463,3.89-8.214,11.14-5.076a5.367,5.367,0,0,1,1.755,1.546,5.386,5.386,0,0,1-2.3.185c-2.164-.324-1.406,1.407,2.166,1.839a8.039,8.039,0,0,1,1.672.353c1.7,3.267,2.469,7.566-1.132,9.059a8.128,8.128,0,0,1-2.562.526c-1.11-.882.272-5.992-1.442-5.286-1.643.677.518,4.379.222,5.312a23.625,23.625,0,0,1-5.136-.72,2.548,2.548,0,0,1-1.359-1.563c-.542-2.273,3.028-3.679,3.138-5.627.1-1.79-1.311,3.939-5.039,4.783-3.374-1.576-4.969-3.714-1.124-5.333" transform="translate(-818.817 -533.225)" fill="#bad0d1" fill-rule="evenodd"/>
    <path id="Path_48059" data-name="Path 48059" d="M943.265,629.4c.867-1.839-1.407-2.273-1.3-.866.093,1.247.105,4.276-1.172,5.1a20.068,20.068,0,0,1-7.472-2.481.927.927,0,0,1,.1-.564c.974-1.948,7.25-3.57,5.3-4.219-1.55-.518-4.269,2.534-6.459,4.071a4.66,4.66,0,0,1-2.2-3.515c0-1.8,2.185-3.833,5.01-4.806,1.27.128,2.452.823,4.3,1.868,2.724,1.545,2.094-.953-.482-2.434a7.757,7.757,0,0,1,6.077,3.336,3.789,3.789,0,0,0,.871,2.471c2.8,4.094-.432,6.484-4.3,6.329a25.608,25.608,0,0,1,1.724-4.292" transform="translate(-749.154 -500.656)" fill="#bad0d1" fill-rule="evenodd"/>
    <path id="Path_48060" data-name="Path 48060" d="M1049.133,671.767a36.766,36.766,0,0,0,7.35,4.845c2.887,1.3,2.309,5.53,2.309,5.53s.432-3.654-1.973-4.906-3.99-2.741-5.817-3.029a26.55,26.55,0,0,1-2.839-.577s.578-1.155.241-1.587.728-.277.728-.277" transform="translate(-844.281 -541.077)" fill="#d2deec" fill-rule="evenodd"/>
    <path id="Path_48061" data-name="Path 48061" d="M1042.434,573.171a33.955,33.955,0,0,0-14.476,8.224c-1.058,1.2-1.058,1.539-1.058,1.539l.819,1.539.385-.193s-.626-1.3,1.01-2.98a29.583,29.583,0,0,1,8.609-6.2c2.357-1.01,4.711-1.924,4.711-1.924" transform="translate(-827.154 -461.681)" fill="#d2deec" fill-rule="evenodd"/>
    <path id="Path_48062" data-name="Path 48062" d="M981.113,749.583h2.959a3.809,3.809,0,0,0,3.809-3.809v-6.8H977.3v6.8a3.809,3.809,0,0,0,3.809,3.809" transform="translate(-787.205 -595.236)" fill="#d2deec" fill-rule="evenodd"/>
    <rect id="Rectangle_5655" data-name="Rectangle 5655" width="10.576" height="0.745" transform="translate(190.1 144.956)" fill="#fff"/>
    <rect id="Rectangle_5656" data-name="Rectangle 5656" width="10.576" height="0.438" transform="translate(190.1 146.314)" fill="#fff"/>
  </g>
</svg>
