<svg xmlns="http://www.w3.org/2000/svg" width="214" height="58.105" viewBox="0 0 214 58.105">
  <g id="Group_53780" data-name="Group 53780" transform="translate(-107 -75.6)">
    <text id="Division_of_Consumer_Complaint" data-name="Division of
Consumer Complaint" transform="translate(203 98.706)" fill="#205760" font-size="12" font-family="HelveticaNeue-Medium, Helvetica Neue" font-weight="500"><tspan x="0" y="0">Division of</tspan><tspan x="0" y="14">Consumer Complaint</tspan></text>
    <g id="Group_53778" data-name="Group 53778" transform="translate(107 75.6)">
      <g id="Group_53779" data-name="Group 53779">
        <path id="Path_47764" data-name="Path 47764" d="M42.5,38.082a10.571,10.571,0,0,1-2.291-3.421c-.768,2.411-2.489,4.851-5.258,7.5a101.131,101.131,0,0,1-11.193,8.633l-.61.428-.6-.428A103.619,103.619,0,0,1,11.32,42.143C7.434,38.426,5.611,35.1,5.611,31.693V12.4L23.144,5.975,40.677,12.4v4.232a8.046,8.046,0,0,1,.986-1.256,8.3,8.3,0,0,1,1.009-1.121,7.944,7.944,0,0,1,3.41-2.191c.068-.036.136-.07.2-.1V8.479L23.144,0,0,8.479V31.693c0,5.071,2.371,9.657,7.462,14.525A103.6,103.6,0,0,0,19.315,55.4l2.209,1.557,1.62,1.15,1.62-1.15L26.973,55.4a104.758,104.758,0,0,0,11.846-9.18,28.293,28.293,0,0,0,5.428-6.777A13.105,13.105,0,0,1,42.5,38.082" fill="#e9a942"/>
        <path id="Path_47765" data-name="Path 47765" d="M351.309,123.6c0-8.765,5-14.062,12.875-14.062,6.541,0,11.518,4.147,11.951,10.236h-5.542a6.3,6.3,0,0,0-6.409-5.523c-4.3,0-7.069,3.6-7.069,9.331,0,5.806,2.733,9.387,7.088,9.387a6.142,6.142,0,0,0,6.409-5.2h5.542c-.641,6.07-5.3,9.915-11.97,9.915-7.917,0-12.875-5.3-12.875-14.081" transform="translate(-311.926 -97.259)" fill="#205760"/>
        <path id="Path_47766" data-name="Path 47766" d="M615.275,113.742c5.58,0,9.425,3.714,9.425,9.312,0,5.58-3.977,9.312-9.708,9.312H609.9v8.577H604.21v-27.2ZM609.9,127.917h3.846c3.261,0,5.165-1.734,5.165-4.845,0-3.091-1.885-4.826-5.146-4.826H609.9Z" transform="translate(-536.476 -100.991)" fill="#205760"/>
        <path id="Path_47767" data-name="Path 47767" d="M128.3,113.743h-8.709l-1.678,1.678v23.954l1.569,1.569H128.3c8.162,0,12.969-5.071,12.969-13.7s-4.807-13.5-12.969-13.5m-.679,22.488h-4.015V118.437h4.015c5.014,0,7.842,3.129,7.842,8.822,0,5.881-2.752,8.973-7.842,8.973" transform="translate(-104.696 -100.992)" fill="#205760"/>
      </g>
    </g>
  </g>
</svg>
