<svg xmlns="http://www.w3.org/2000/svg" xmlns:xlink="http://www.w3.org/1999/xlink" width="164.961" height="229.617" viewBox="0 0 164.961 229.617">
  <defs>
    <clipPath id="clip-path">
      <rect id="Rectangle_5693" data-name="Rectangle 5693" width="164.961" height="229.617" fill="none"/>
    </clipPath>
  </defs>
  <g id="Group_54018" data-name="Group 54018" transform="translate(0 0)">
    <g id="Group_54018-2" data-name="Group 54018" transform="translate(0 0)" clip-path="url(#clip-path)">
      <path id="Path_48344" data-name="Path 48344" d="M235.747,94.4a6.369,6.369,0,0,0-.58,3.31l1.342-1.251Z" transform="translate(-177.942 -51.688)" fill="#fba56a"/>
      <path id="Path_48345" data-name="Path 48345" d="M221.563,90.993a2.755,2.755,0,0,0,.384,2.554l2.047,1.223Z" transform="translate(-159.213 -49.822)" fill="#fba56a"/>
      <path id="Path_48346" data-name="Path 48346" d="M217.1,89.937a5.4,5.4,0,0,0,1.232,3.328l.748-.315Z" transform="translate(-152.344 -49.244)" fill="#fba56a"/>
      <path id="Path_48347" data-name="Path 48347" d="M229.417,93.029a2.755,2.755,0,0,0,.271,2.568l.963-.752Z" transform="translate(-169.406 -50.937)" fill="#fba56a"/>
      <path id="Path_48348" data-name="Path 48348" d="M55.5,482.594l-3.291-7.516a3.609,3.609,0,0,1-.22-2.222c.382-1.738,1-4.393,1.879-7.394H45.822c-.577,3-1.547,7.311-1.73,8.415-.01.057-.02.115-.033.172l-1.95,8.693a.811.811,0,0,0,.791.989H54.76a.811.811,0,0,0,.743-1.137" transform="translate(90.345 -254.858)" fill="#fba56a"/>
      <path id="Path_48349" data-name="Path 48349" d="M18.941,240.108l-.362,13.782-.4,13.8q-.426,13.8-.928,27.591c-.346,9.195-.7,18.39-1.135,27.575s-.9,18.368-1.491,27.53v.009a3.608,3.608,0,0,0,7.158.833c1.543-9.123,2.963-18.254,4.344-27.388S28.81,305.562,30.1,296.42s2.543-18.288,3.777-27.437l1.829-13.727L37.5,241.508a9.319,9.319,0,1,0-18.483-2.4,9.479,9.479,0,0,0-.075.946Z" transform="translate(120.77 -126.473)" fill="#fba56a"/>
      <path id="Path_48350" data-name="Path 48350" d="M84.571,222.07l-1.933,7.3-1.906,7.286q-1.9,7.286-3.76,14.579-3.731,14.584-7.3,29.216c-.59,2.441-1.193,4.876-1.772,7.319L66.158,295.1c-.579,2.443-1.136,4.9-1.705,7.342l-.847,3.672-.823,3.681c-1.112,4.9-2.155,9.83-3.19,14.757l-1.479,7.421-1.35,7.474a3.6,3.6,0,0,0,7.014,1.631l.03-.108,2.006-7.147,2.143-7.136c1.48-4.751,2.967-9.5,4.527-14.234l1.156-3.553,1.183-3.549c.793-2.365,1.573-4.731,2.376-7.093l2.415-7.084c.8-2.361,1.63-4.718,2.444-7.076q4.91-14.146,9.983-28.243,2.534-7.048,5.1-14.084l2.573-7.031,2.589-7.006.017-.045a9.318,9.318,0,0,0-17.48-6.459c-.1.275-.193.566-.267.844" transform="translate(36.405 -117.795)" fill="#fba56a"/>
      <path id="Path_48351" data-name="Path 48351" d="M164.462,492.307H141.717a.746.746,0,0,1-.318-1.421l17.046-8.046,7.381.642Z" transform="translate(-64.648 -264.373)" fill="#fba56a"/>
      <path id="Path_48352" data-name="Path 48352" d="M66.474,192.412S59.093,197.867,40,196.1L20.28,260.047a92.583,92.583,0,0,0-3.139,13.9c-1.234,8.442-4.593,28.584-6.169,39.765,0,0,9.146,2.086,10.108,2.246.316.052,8.081-21.628,10.9-30.592.62-1.975,3.328-14.914,4.079-16.842l16.458-42.256-.481,49.1s-1.089,37.875-.612,41.556l10.108.8s4.33-24.543,5.25-31.622c.332-2.554,1.041-10.968,1.041-10.968S77.065,228.5,75.94,215.2c-.963-11.392-5.616-17.81-9.466-22.784" transform="translate(83.961 -105.353)" fill="#423b7f"/>
      <path id="Path_48353" data-name="Path 48353" d="M52.911,492.768s-4.233,4.2-10.269,0l-1.14,4.98a1.372,1.372,0,0,0,1.337,1.678H53.88a1.372,1.372,0,0,0,1.242-1.955Z" transform="translate(90.945 -269.809)"/>
      <path id="Path_48354" data-name="Path 48354" d="M166.57,491.243a.691.691,0,0,0-.486-.658c-1.123-.349-3.993-1.026-6.387.234-2.749,1.447-8.695.872-9.838.745a.69.69,0,0,0-.371.062l-7.049,3.327a.694.694,0,0,0,.3,1.321H165.9a.694.694,0,0,0,.694-.7Z" transform="translate(-65.9 -268.342)"/>
      <path id="Path_48355" data-name="Path 48355" d="M31.626,14.5c-.459,7.953,1.875,7.952,6.545,13.013,4.082,4.423,3.113,17.9-8.314,18.333C10.71,46.574,6.067,44.4,1.727,41.02s.7-22.367,2.089-26.845c7.555-24.433,28.55-12.518,27.809.322" transform="translate(124.59 0)"/>
      <path id="Path_48356" data-name="Path 48356" d="M45.133,70.357a4.018,4.018,0,1,0,7.5-2.895c-1.619-4.189-.218-12.878.4-15.591a3.526,3.526,0,0,0,.066-.383,4.018,4.018,0,0,0-7.9-1.4,59.582,59.582,0,0,0-1.047,6.444c-.458,4.265-.58,9.764.989,13.826" transform="translate(91.996 -25.712)" fill="#fba56a"/>
      <path id="Path_48357" data-name="Path 48357" d="M43.842,56.531a13.224,13.224,0,0,0,8.95-5.043,4.018,4.018,0,0,0-7.9-1.4,59.355,59.355,0,0,0-1.047,6.445" transform="translate(92.298 -25.712)" fill="#c45b47"/>
      <path id="Path_48358" data-name="Path 48358" d="M36.305,34.743c4.9,2.286,13.36-2.205,14.146-7.555l1.69-4.54A9.79,9.79,0,1,0,32.769,19.8l-.647,4.413c-.477,4.739,1.773,9.4,4.184,10.526" transform="translate(98.21 -6.261)" fill="#fba56a"/>
      <path id="Path_48359" data-name="Path 48359" d="M29.8,9.419s6.754,10.2,10.96,11.737,1.447-9.162,1.447-9.162L30.631,7.171Z" transform="translate(108.384 -3.926)"/>
      <path id="Path_48360" data-name="Path 48360" d="M28.918,39.354c-.833,1.312-.747,2.858.191,3.452s2.371.012,3.2-1.3.747-2.858-.19-3.452-2.371-.012-3.2,1.3" transform="translate(119.252 -20.709)" fill="#fba56a"/>
      <path id="Path_48361" data-name="Path 48361" d="M52.1,86.32,45,84.069l-7.153.214L31.1,86.217l3.273,5.22L49.5,90.231Z" transform="translate(98.788 -46.031)" fill="#fba56a"/>
      <path id="Path_48362" data-name="Path 48362" d="M14.459,110.617A86.344,86.344,0,0,0,15.624,91.5c4.83-1.908,7.863-3.214,7.863-3.214s9.729,7.122,19.292-.442L50.763,90.5c.795,3.224,1.675,6.422.764,9.937a18.054,18.054,0,0,0,.5,8.47c-.2,1.541-1.618,4.768-1.8,7.364l-.549,32.332a54.489,54.489,0,0,1-15.509,2.55c-7.433-.032-18.733-2.5-18.733-2.5s-.114-21.535.288-30.457c.021-.472-1.11-6.4-1.264-7.586" transform="translate(106.396 -48.096)" fill="#fba56a"/>
      <path id="Path_48363" data-name="Path 48363" d="M54.619,111.463S46.9,125.512,38.3,111.434l3.578,25.2,8.017-.289Z" transform="translate(93.014 -61.014)" fill="#fff"/>
      <path id="Path_48364" data-name="Path 48364" d="M53.755,172.446s-6.141,4.165-15.267-.647l2.47,25.337,8.023.062Z" transform="translate(93.792 -94.066)" fill="#fff"/>
      <path id="Path_48365" data-name="Path 48365" d="M6.322,116.556c-.4-2.981-5.8-21.285-5.8-21.285a7.638,7.638,0,0,1,.667-.839,16.484,16.484,0,0,1,6.825-4.5c1.336-.489,2.828-1.114,3.866-1.479A29.677,29.677,0,0,1,16.213,87.3l8.081,35.083s7.331-18.957,9.995-35.511L37.9,87.961s5.188,1.718,6.986,2.369a8.231,8.231,0,0,1,4.469,3.432,6.217,6.217,0,0,1,.693,4.854l-4.5,17.021s-2.075,15.194-2.07,20.293c0,3.216,1.331,12.795,1.331,12.795a171.889,171.889,0,0,1-18.455,2.159c-.724.028-1.548-6.407-1.548-6.407s-1.394,6.436-1.829,6.422A123.751,123.751,0,0,1,6.05,148.725,88.035,88.035,0,0,0,7.311,135.5a172.893,172.893,0,0,0-.989-18.947" transform="translate(114.462 -47.566)" fill="#b6d9ef"/>
      <path id="Path_48366" data-name="Path 48366" d="M95.9,101.123a179.19,179.19,0,0,0,21.642-8.3l-3.12,17.34c-5.24,1.649-12.454,4.227-19.546,4.5-2.13.082-10.76-10.26,1.024-13.541" transform="translate(6.769 -50.825)" fill="#b6d9ef"/>
      <path id="Path_48367" data-name="Path 48367" d="M57.484,184.013a1.085,1.085,0,1,0,1.085-1.085,1.085,1.085,0,0,0-1.085,1.085" transform="translate(79.298 -100.16)" fill="#2b224f"/>
      <path id="Path_48368" data-name="Path 48368" d="M57.484,200.355a1.085,1.085,0,1,0,1.085-1.085,1.085,1.085,0,0,0-1.085,1.085" transform="translate(79.298 -109.108)" fill="#2b224f"/>
      <path id="Path_48369" data-name="Path 48369" d="M50.127,33.965a.8.8,0,1,0,.781-.823.8.8,0,0,0-.781.823" transform="translate(90.549 -18.146)" fill="#230e1a"/>
      <path id="Path_48370" data-name="Path 48370" d="M66.807,31.783a.8.8,0,1,0,.781-.823.8.8,0,0,0-.781.823" transform="translate(66.322 -16.951)" fill="#230e1a"/>
      <path id="Path_48371" data-name="Path 48371" d="M48.036,26.443a4.223,4.223,0,0,1,1.063,0,5.094,5.094,0,0,1,1.96.641,5.6,5.6,0,0,1,.842.59.174.174,0,0,1-.214.276l-.008-.006a5.28,5.28,0,0,0-.807-.514,4.57,4.57,0,0,0-.884-.347,4.476,4.476,0,0,0-.932-.16,4.531,4.531,0,0,0-.47-.008,3.333,3.333,0,0,0-.448.048l-.015,0a.262.262,0,0,1-.1-.515l.014,0" transform="translate(91.365 -14.459)" fill="#230e1a"/>
      <path id="Path_48372" data-name="Path 48372" d="M68.269,25.084a3.91,3.91,0,0,0-.747-.192,4.023,4.023,0,0,0-.784-.046,3.219,3.219,0,0,0-.772.12,3.154,3.154,0,0,0-.72.3l-.013.007a.169.169,0,0,1-.167-.293,3.483,3.483,0,0,1,.787-.381,3.578,3.578,0,0,1,.856-.179,4.46,4.46,0,0,1,.872.006,4.326,4.326,0,0,1,.868.18.254.254,0,0,1-.156.483l-.011,0Z" transform="translate(66.932 -13.363)" fill="#230e1a"/>
      <path id="Path_48373" data-name="Path 48373" d="M51.067,34.268a.085.085,0,0,1-.054-.039,3.107,3.107,0,0,0-2.987-1.3.085.085,0,0,1-.019-.168,3.276,3.276,0,0,1,3.151,1.386.084.084,0,0,1-.091.125" transform="translate(92.104 -17.922)" fill="#230e1a"/>
      <path id="Path_48374" data-name="Path 48374" d="M67.69,31.954a.086.086,0,0,1-.054-.039,3.106,3.106,0,0,0-2.987-1.3.084.084,0,0,1-.019-.168,3.276,3.276,0,0,1,3.151,1.386.084.084,0,0,1-.029.115.083.083,0,0,1-.062.01" transform="translate(67.96 -16.655)" fill="#230e1a"/>
      <path id="Path_48375" data-name="Path 48375" d="M62.042,38.344a2.425,2.425,0,0,1-1.8-1.226.084.084,0,0,1,.008-.079,8.512,8.512,0,0,0,1.334-6.3.084.084,0,0,1,.164-.042,8.7,8.7,0,0,1-1.331,6.4,2.684,2.684,0,0,0,2.351,1.182.085.085,0,1,1-.011.169,4.645,4.645,0,0,1-.714-.1" transform="translate(74.86 -16.772)" fill="#230e1a"/>
      <path id="Path_48376" data-name="Path 48376" d="M62.168,52.554a.083.083,0,0,1,0,.152c-.03.013-2.977,1.336-5-.918a.083.083,0,0,1,.123-.111c1.944,2.162,4.782.891,4.811.878a.082.082,0,0,1,.067,0" transform="translate(76.887 -28.28)" fill="#230e1a"/>
      <path id="Path_48377" data-name="Path 48377" d="M94.378,165.313a3.245,3.245,0,0,1,3.779-2.51l.016,0q3.238.606,6.49,1.05a43.775,43.775,0,0,0-1.709,6.361c-2.04-.358-4-.76-5.748-1.205-1.782-.408-3.209-1.92-2.828-3.7" transform="translate(17.624 -89.11)" fill="#fba56a"/>
      <path id="Path_48378" data-name="Path 48378" d="M25.018,94.819l-7.536,5.259S2.956,125.406,5.269,130.2c1.227,2.543,7.734,4.726,8.77,3.64,5.07-5.314,15.865-20.3,16.371-22.9,1.566-8.021.073-12.727.073-12.727-.51.914-5.162-4.531-5.465-3.394" transform="translate(131.564 -51.831)" fill="#b6d9ef"/>
      <rect id="Rectangle_5691" data-name="Rectangle 5691" width="139.422" height="101.35" transform="translate(25.62 191.903) rotate(-100.589)" fill="#e9f9ff"/>
      <path id="Path_48379" data-name="Path 48379" d="M170.82,152.865l-2.893-15.478a.35.35,0,0,0-.409-.28L152.04,140a.327.327,0,0,0-.224.146.349.349,0,0,0-.056.262l2.894,15.479a.35.35,0,0,0,.146.224.354.354,0,0,0,.262.055l15.478-2.894.023,0a.35.35,0,0,0,.257-.4m-18.308-12.241,14.791-2.765,2.765,14.79-14.79,2.766Z" transform="translate(-74.528 -75.068)"/>
      <path id="Path_48380" data-name="Path 48380" d="M159.809,211.764l-2.893-15.478a.35.35,0,0,0-.409-.28L141.029,198.9a.322.322,0,0,0-.224.146.349.349,0,0,0-.056.262l2.893,15.479a.35.35,0,0,0,.408.28l15.478-2.894.023,0a.35.35,0,0,0,.257-.4M141.5,199.523l14.791-2.765,2.765,14.791-14.79,2.765Z" transform="translate(-58.534 -107.318)"/>
      <path id="Path_48381" data-name="Path 48381" d="M148.8,270.663,145.9,255.185a.349.349,0,0,0-.408-.279L130.017,257.8a.345.345,0,0,0-.28.408l2.893,15.478a.35.35,0,0,0,.409.28l15.478-2.894.023,0a.35.35,0,0,0,.257-.4m-18.308-12.24,14.79-2.765,2.765,14.79-14.791,2.766Z" transform="translate(-42.54 -139.567)"/>
      <path id="Path_48382" data-name="Path 48382" d="M137.73,329.825a.35.35,0,0,0,.056-.262l-2.893-15.479a.349.349,0,0,0-.408-.279L119.006,316.7a.342.342,0,0,0-.28.408l2.893,15.478a.351.351,0,0,0,.409.28l15.478-2.893.022,0a.35.35,0,0,0,.2-.141m-18.252-12.5,14.79-2.765,2.765,14.791-14.791,2.765Z" transform="translate(-26.547 -171.817)"/>
      <path id="Path_48383" data-name="Path 48383" d="M205.372,165.055l52.7-9.851a.537.537,0,0,0,.428-.626l-.128-.685a.536.536,0,0,0-.626-.428l-52.7,9.851a.536.536,0,0,0-.428.626l.128.685a.536.536,0,0,0,.626.428" transform="translate(-186.124 -84.022)"/>
      <path id="Path_48384" data-name="Path 48384" d="M202.406,180.916l52.7-9.851a.537.537,0,0,0,.428-.626l-.128-.685a.536.536,0,0,0-.626-.428l-52.7,9.851a.536.536,0,0,0-.428.626l.128.685a.536.536,0,0,0,.626.429" transform="translate(-181.817 -92.707)"/>
      <path id="Path_48385" data-name="Path 48385" d="M194.347,224.023l52.7-9.851a.537.537,0,0,0,.429-.626l-.129-.685a.536.536,0,0,0-.626-.428l-52.7,9.851a.536.536,0,0,0-.428.626l.128.685a.536.536,0,0,0,.626.429" transform="translate(-170.111 -116.309)"/>
      <path id="Path_48386" data-name="Path 48386" d="M191.382,239.883l52.7-9.851a.536.536,0,0,0,.428-.626l-.128-.685a.536.536,0,0,0-.626-.428l-52.7,9.851a.537.537,0,0,0-.428.626l.128.685a.536.536,0,0,0,.626.428" transform="translate(-165.805 -124.993)"/>
      <path id="Path_48387" data-name="Path 48387" d="M183.324,282.991l52.7-9.851a.536.536,0,0,0,.428-.626l-.128-.685a.536.536,0,0,0-.626-.428L183,281.251a.537.537,0,0,0-.428.626l.128.685a.536.536,0,0,0,.626.428" transform="translate(-154.101 -148.597)"/>
      <path id="Path_48388" data-name="Path 48388" d="M180.359,298.85l52.7-9.851a.537.537,0,0,0,.428-.626l-.128-.685a.537.537,0,0,0-.626-.428l-52.7,9.852a.536.536,0,0,0-.428.626l.128.685a.536.536,0,0,0,.626.429" transform="translate(-149.793 -157.28)"/>
      <path id="Path_48389" data-name="Path 48389" d="M172.3,341.958l52.7-9.851a.536.536,0,0,0,.428-.626l-.128-.685a.536.536,0,0,0-.626-.429l-52.7,9.851a.537.537,0,0,0-.429.626l.128.685a.536.536,0,0,0,.626.428" transform="translate(-138.089 -180.883)"/>
      <path id="Path_48390" data-name="Path 48390" d="M169.336,357.819l52.7-9.851a.537.537,0,0,0,.428-.626l-.128-.685a.536.536,0,0,0-.626-.428l-52.7,9.852a.537.537,0,0,0-.428.626l.128.685a.536.536,0,0,0,.626.428" transform="translate(-133.783 -189.568)"/>
      <path id="Path_48391" data-name="Path 48391" d="M166.151,149.108a.7.7,0,0,1-.644-.211l-5.973-6.377a.7.7,0,1,1,1.028-.962l5.178,5.527,5.049-14.475a.7.7,0,1,1,1.329.464l-5.433,15.573a.7.7,0,0,1-.519.457l-.016,0" transform="translate(-79.294 -72.351)" fill="#e08d55"/>
      <path id="Path_48392" data-name="Path 48392" d="M144.216,266.041a.7.7,0,0,1-.644-.211l-5.973-6.377a.7.7,0,1,1,1.028-.962l5.178,5.527,5.049-14.475a.7.7,0,1,1,1.329.464l-5.432,15.573a.7.7,0,0,1-.519.457l-.016,0" transform="translate(-47.435 -136.376)" fill="#e08d55"/>
      <rect id="Rectangle_5692" data-name="Rectangle 5692" width="3.685" height="50.102" transform="translate(27.497 62.504) rotate(-100.589)"/>
      <path id="Path_48393" data-name="Path 48393" d="M113.077,151.015s-2.888-.36-3.785.029c-.824.357-1.655.74-1.789,1.886-.049.425.727.767,1.18.57.565-.245,1.047-1.039,2.553-.59.158.047.214.2.055.241a11.471,11.471,0,0,0-2.339,1.025c-.583.356-.991.562-.82,1.262a1.079,1.079,0,0,0,1.494.646l1.659-.46c.046-.006.079.19.038.212l-1.606.652a1.126,1.126,0,0,0-.518.529c-.133.3-.141.7.474,1.029a3.91,3.91,0,0,0,2.07-.092c.035-.007.065.176.033.193l-.778.417a.572.572,0,0,0-.3.384.5.5,0,0,0,.318.558c.723.4,3.563-.047,4.63.041,2.138.175,2.58,1.032,4.431.474s2.408-5.6,2.408-5.6-3.174-1.179-3.918-1.488c-2.293-.954-5.072-2.751-5.344-5.567,0,0-.876-.686-1.042,1.194a2.758,2.758,0,0,0,.9,2.453" transform="translate(-6.163 -80.623)" fill="#fba56a"/>
      <path id="Path_48394" data-name="Path 48394" d="M64.7,157.267c.737.533-1.8.974-1.588,1.86.463,1.95,1.4,6.568-.029,7.007a66.516,66.516,0,0,1-6.77,1.113c-6.957.371-27.433-.288-27.433-.288a1.221,1.221,0,0,1-1.2-1.131l-.6-8.108a1.222,1.222,0,0,1,1.046-1.3L60.516,155s.329-.521,4.189,2.272" transform="translate(87.868 -84.845)" fill="#b6d9ef"/>
      <path id="Path_48395" data-name="Path 48395" d="M232.336,94l1.016,2.19a1,1,0,0,1-1.784.919l-1.194-2.1a1.1,1.1,0,0,1,1.92-1.092c.015.026.029.055.042.081" transform="translate(-172.655 -51.119)" fill="#fba56a"/>
      <path id="Path_48396" data-name="Path 48396" d="M216.014,88.56l1.24,1.98a1,1,0,0,1-1.652,1.137L214.2,89.81a1.1,1.1,0,1,1,1.765-1.329c.019.025.038.052.054.078" transform="translate(-149.262 -48.206)" fill="#fba56a"/>
      <path id="Path_48397" data-name="Path 48397" d="M220.966,89.937l1.5,2.43a1,1,0,0,1-1.668,1.115l-1.67-2.319a1.1,1.1,0,0,1,1.792-1.291c.014.02.03.044.043.065" transform="translate(-156.713 -48.957)" fill="#fba56a"/>
      <path id="Path_48398" data-name="Path 48398" d="M226.281,91.925l1.423,2.6a1,1,0,0,1-1.727,1.022l-1.6-2.5a1.1,1.1,0,1,1,1.861-1.188c.013.02.027.043.038.064" transform="translate(-164.313 -50.018)" fill="#fba56a"/>
      <path id="Path_48399" data-name="Path 48399" d="M10.927,164.656s18.5.688,27.531-3.355S49.2,150.446,49.2,150.446a19.25,19.25,0,0,1-9.2,12.318c-7.743,4.3-29.08,3.1-29.08,3.1Z" transform="translate(110.812 -82.375)" fill="#95c4d8"/>
      <path id="Path_48400" data-name="Path 48400" d="M60.538,155.12l16.691-.774-.172-1.2-16.433,1.2Z" transform="translate(60.341 -83.85)" fill="#95c4d8"/>
      <path id="Path_48401" data-name="Path 48401" d="M27.832,142.6s6.8-.43,9.464-3.183a31.526,31.526,0,0,0,4.818-7.571s-3.614,7.485-13.68,9.55Z" transform="translate(110.254 -72.19)" fill="#95c4d8"/>
    </g>
  </g>
</svg>
