<svg xmlns="http://www.w3.org/2000/svg" width="32" height="32" viewBox="0 0 32 32">
  <path id="Subtraction_20" data-name="Subtraction 20" d="M4418,319a15.951,15.951,0,1,1,6.228-1.257A15.9,15.9,0,0,1,4418,319Zm-1.366-22.56-1.159,1.12.24.235c.549.538,1.169,1.149,1.827,1.8l.347.341.059.058.6.6.143.14c.438.432.892.878,1.32,1.3l.24.243-.24.244-4.537,4.456.83.81v.643l6.254-6.153-.237-.233c-.513-.5-1.222-1.2-1.972-1.939l-.007-.007-.753-.741c-1.2-1.179-2.116-2.082-2.73-2.685Z" transform="translate(-4402 -287)" fill="#e9a942"/>
</svg>
