<svg xmlns="http://www.w3.org/2000/svg" width="32.744" height="40.64" viewBox="0 0 32.744 40.64">
  <path id="Union_47" data-name="Union 47" d="M7.963,39.64A7.95,7.95,0,0,1,.035,31.712V19.819H0V15.855H.035V5.945A1.9,1.9,0,0,0,0,5.753V0H23.815a7.95,7.95,0,0,1,7.929,7.928V31.712a7.95,7.95,0,0,1-7.929,7.928ZM4,31.712a3.975,3.975,0,0,0,3.964,3.964H23.815a3.975,3.975,0,0,0,3.965-3.964V7.928a3.975,3.975,0,0,0-3.965-3.964H4ZM13.908,28.8V25.767h3.966V28.8Zm0-5.2V7.747h3.966V23.6Z" transform="translate(0.5 0.5)" fill="#0881fd" stroke="rgba(0,0,0,0)" stroke-width="1"/>
</svg>
