<svg xmlns="http://www.w3.org/2000/svg" width="18.45" height="27.781" viewBox="0 0 18.45 27.781">
  <path id="Union_63" data-name="Union 63" d="M-783.626-12986.075v-17.942l-6.914,6.914a.861.861,0,0,1-1.211,0,.862.862,0,0,1,0-1.211l8.377-8.377a.854.854,0,0,1,.605-.251.854.854,0,0,1,.606.251l8.365,8.377a.862.862,0,0,1,0,1.211.846.846,0,0,1-.606.252.847.847,0,0,1-.606-.252l-6.9-6.914v17.942a.863.863,0,0,1-.857.856A.863.863,0,0,1-783.626-12986.075Zm-7.531-25.324a.8.8,0,0,1-.8-.8.8.8,0,0,1,.8-.8H-774.4a.8.8,0,0,1,.8.8.8.8,0,0,1-.8.8Z" transform="translate(792 13013)"/>
</svg>
